<?xml version="1.0" standalone="no"?>
<!DOCTYPE svg PUBLIC "-//W3C//DTD SVG 1.1//EN" "http://www.w3.org/Graphics/SVG/1.1/DTD/svg11.dtd" >
<svg xmlns="http://www.w3.org/2000/svg" xmlns:xlink="http://www.w3.org/1999/xlink" version="1.1">
<metadata></metadata>
<defs>
<font id="1_cataneo_btregular" horiz-adv-x="1049" >
<font-face units-per-em="2048" ascent="1638" descent="-410" />
<missing-glyph horiz-adv-x="1024" />
<glyph horiz-adv-x="0" />
<glyph unicode="&#xd;" horiz-adv-x="1024" />
<glyph unicode=" "  horiz-adv-x="1024" />
<glyph unicode="&#x09;" horiz-adv-x="1024" />
<glyph unicode="&#xa0;" horiz-adv-x="1024" />
<glyph unicode="!" horiz-adv-x="633" d="M115 86q0 62 39 111q41 53 102 53q102 0 102 -103q0 -70 -35 -118q-39 -54 -106 -54q-102 0 -102 111zM162 1184q209 151 313 151q78 0 78 -92q0 -56 -47 -231l-182 -678l-80 20q59 475 59 645q0 164 -55 164q-29 0 -66 -22z" />
<glyph unicode="&#x22;" horiz-adv-x="711" d="M86 1386q0 111 96 111q99 0 99 -111q0 -27 -2 -40l-74 -469h-41l-76 471q-2 12 -2 38zM430 1386q0 111 98 111q99 0 99 -108v-17q0 -10 -4 -24l-74 -471h-41l-76 469q-2 12 -2 40z" />
<glyph unicode="#" horiz-adv-x="1614" d="M72 438l59 172h309l95 269h-326l61 170h326l158 446h188l-160 -446h275l160 446h186l-160 -446h297l-59 -170h-297l-94 -269h313l-60 -172h-315l-158 -444h-188l158 444h-275l-155 -444h-189l160 444h-309zM623 608h282l94 271h-280z" />
<glyph unicode="$" horiz-adv-x="891" d="M-57 127q0 63 114 156q93 -166 234 -187l90 482q-254 157 -254 335q0 156 114 261q100 92 263 126q6 62 26 203l134 -22q-13 -35 -23 -92l-14 -80q247 -6 247 -121q0 -58 -92 -121q-69 121 -178 145l-78 -415q123 -80 181 -150q81 -98 81 -215q0 -156 -122 -268 q-105 -97 -269 -139l-16 -115q-7 -49 -19 -127l-133 20q0 44 17 105l28 100q-67 -8 -77 -8q-86 0 -156 23q-98 32 -98 104zM332 1047q0 -95 102 -187l58 361q-160 -23 -160 -174zM406 100q163 54 163 228q0 108 -90 186z" />
<glyph unicode="%" horiz-adv-x="1767" d="M86 750q0 220 127 393q141 192 344 192q111 0 169 -76q52 -68 52 -182q0 -221 -129 -399q-141 -195 -350 -195q-213 0 -213 267zM291 797q0 -219 106 -219t148 200q24 114 24 279q0 186 -98 186q-102 0 -149 -184q-31 -121 -31 -262zM367 14q456 631 915 1368l119 -84 q-461 -636 -914 -1368zM991 242q0 217 131 393q143 192 342 192q219 0 219 -254q0 -214 -129 -397q-142 -201 -340 -201q-223 0 -223 267zM1196 291q0 -219 109 -219q106 0 149 200q25 117 25 277q0 188 -99 188q-103 0 -151 -184q-33 -126 -33 -262z" />
<glyph unicode="&#x26;" horiz-adv-x="1847" d="M45 893q0 210 229 336q193 106 437 106q336 0 525 -169q196 -174 206 -507h104q187 0 187 95q0 61 -84 139q24 37 75 37q105 0 105 -111q0 -147 -113 -228q-100 -73 -252 -73h-26q-41 -259 -238 -407q-187 -140 -455 -140q-234 0 -378 109q-162 121 -162 348 q0 203 121.5 322.5t324.5 119.5q236 0 236 -159q0 -45 -31 -76l315 12q-20 269 -161 424q-151 168 -414 168q-159 0 -262 -59q-129 -74 -129 -219q0 -80 53 -160q-49 -39 -90 -39q-55 0 -89 37.5t-34 93.5zM463 492q0 -194 75 -309q89 -138 273 -138q179 0 276 156 q80 129 87 321l-543 6q-111 1 -168 -28v-8zM463 557l45 39q38 33 156 33v47q0 117 -78 117q-117 0 -123 -236z" />
<glyph unicode="'" horiz-adv-x="367" d="M86 1386q0 111 96 111q99 0 99 -111q0 -27 -2 -40l-74 -469h-41l-76 471q-2 12 -2 38z" />
<glyph unicode="(" horiz-adv-x="616" d="M90 432q0 410 171 724q189 347 544 493l22 -64q-261 -144 -403 -473q-125 -289 -125 -641q0 -420 188 -733q-49 -25 -86 -25q-167 0 -251 275q-60 197 -60 444z" />
<glyph unicode=")" horiz-adv-x="616" d="M-213 -238q265 149 406 474q122 282 122 638q0 416 -192 736q15 0 47 16t39 16q168 0 252 -280q61 -204 61 -449q0 -292 -96 -551q-180 -486 -619 -665z" />
<glyph unicode="*" horiz-adv-x="827" d="M74 1057q45 53 90 53q8 0 41 -12l4 -4l201 -86l-21 217q0 6 -2 18.5t-2 18.5q0 51 82 73q82 -22 82 -73q0 -17 -4 -37l-21 -217l205 90q12 12 41 12q45 0 90 -53q-6 -79 -51 -99q-17 -8 -37 -12l-211 -45l144 -164q32 -36 32 -69q0 -82 -78 -82q-47 0 -81 57l-111 188 l-109 -188q-33 -57 -82 -57q-79 0 -79 82q0 33 32 69l144 164l-211 45q-84 18 -88 111z" />
<glyph unicode="+" horiz-adv-x="1747" d="M260 541v170h526v538h175v-538h526v-170h-526v-541h-175v541h-526z" />
<glyph unicode="," horiz-adv-x="602" d="M70 -225q118 112 118 225q0 84 -65 164l110 82q21 16 54 16q94 0 94 -139q0 -101 -96 -217q-49 -59 -174 -170z" />
<glyph unicode="-" horiz-adv-x="729" d="M37 381q145 233 258 233q29 0 88 -8t88 -8q88 0 156 61l37 -24q-152 -238 -263 -238q-19 0 -88 11q-50 8 -88 8q-92 0 -153 -62z" />
<glyph unicode="." horiz-adv-x="602" d="M119 90q0 66 40 117q43 55 107 55q45 0 76 -30.5t31 -75.5q0 -73 -37 -124q-41 -57 -111 -57q-106 0 -106 115z" />
<glyph unicode="/" horiz-adv-x="621" d="M-61 -287q303 951 548 1897l185 -54q-303 -933 -549 -1898z" />
<glyph unicode="0" horiz-adv-x="1204" d="M49 401q0 211 77 403q81 203 230 339q210 192 447 192q178 0 269 -119q83 -107 83 -290q0 -217 -77 -412q-82 -209 -234 -344q-220 -195 -455 -195q-179 0 -266 129q-74 109 -74 297zM334 463q0 -371 201 -371q198 0 280 334q51 207 51 483q0 316 -194 316 q-189 0 -277 -287q-61 -199 -61 -475z" />
<glyph unicode="1" horiz-adv-x="811" d="M-72 -8l15 65l254 35q116 547 151 1053q-151 -43 -278 -68l10 64q268 69 524 194l64 -24q-131 -625 -181 -1219l267 -35l-17 -65q-11 0 -233 4l-111 2q-8 0 -31 1q-19 1 -30 1h-84q-82 0 -320 -8z" />
<glyph unicode="2" horiz-adv-x="1053" d="M-94 49l278 213q303 232 426 455q68 123 68 270q0 98 -41 166q-49 82 -141 82q-88 0 -136.5 -53t-48.5 -142q0 -77 39 -153q-57 -23 -98 -23q-52 0 -86.5 35.5t-34.5 87.5q0 153 168 254q149 90 313 90q163 0 260 -64q115 -76 115 -231q0 -226 -229 -436 q-104 -96 -260 -205l-271 -190q74 8 219 8q19 0 57.5 -2t57.5 -2h107q92 0 134.5 31.5t69.5 119.5h62l-14 -57q-5 -17 -19 -72q-60 -231 -182 -231h2q-17 1 -84 4q-234 10 -416 10q-163 0 -223 -6l-80 -8z" />
<glyph unicode="3" horiz-adv-x="1032" d="M-45 143q0 107 131 164q53 -246 242 -246q125 0 204 97q74 91 74 219q0 252 -315 252h-17l33 84q159 12 253 87q108 86 108 238q0 201 -181 201q-188 0 -188 -235v-21q0 -14 2 -33q0 -20 -55 -20q-115 0 -115 108q0 139 176 224q143 69 307 69q147 0 240 -60 q111 -71 111 -210q0 -262 -387 -346q141 -15 223 -84q94 -78 94 -213q0 -205 -215 -330q-186 -108 -418 -108q-307 0 -307 163z" />
<glyph unicode="4" horiz-adv-x="1122" d="M-4 500q422 413 651 770q101 20 250 65l66 -20q-64 -234 -123 -746h43q112 0 129 70h63q-4 -16 -6 -45q-31 -188 -131 -188h-41q-25 0 -74 4q-20 -170 -30 -365q-123 -25 -224 -74l-55 35q43 203 72 408q-26 0 -79 3t-79 3h-22q-256 0 -386 -23zM164 565q143 13 289 13 h155q31 198 80 600q-299 -428 -524 -613z" />
<glyph unicode="5" horiz-adv-x="1004" d="M-57 156q0 100 139 155q59 -254 242 -254q188 0 256 228q20 67 20 151q0 266 -227 266q-103 0 -195 -63l-51 41q94 223 94 473v51q0 32 27 58q15 15 59 57q162 -33 357 -33q104 0 141 6q98 16 108 72h62q-7 -97 -14 -127q-18 -78 -60 -109q-52 -38 -270 -38 q-121 0 -297 16q-12 -205 -68 -352q140 49 262 49q365 0 365 -316q0 -179 -120 -309q-109 -119 -290 -170q-116 -33 -235 -33q-117 0 -195 33q-110 47 -110 148z" />
<glyph unicode="6" horiz-adv-x="1120" d="M49 348q0 333 201 625q144 209 387 303q137 53 264 53q166 0 166 -98q0 -84 -94 -158q-99 146 -232 146q-272 0 -397 -584q197 205 410 205q270 0 270 -283q0 -246 -190 -417q-184 -165 -433 -165q-352 0 -352 373zM311 311q0 -96 39 -160q47 -77 137 -77q123 0 199 137 q64 116 64 252q0 221 -168 221q-122 0 -201 -125q-70 -111 -70 -248z" />
<glyph unicode="7" horiz-adv-x="948" d="M102 1008q18 47 29 84q69 223 180 223q56 0 97 -2l266 -13q82 -4 98 -4q158 0 305 19l25 -45q-275 -210 -443 -555q-159 -326 -184 -690q-133 -19 -266 -66l-47 43q131 692 678 1120q-103 -20 -248 -20h-211q-92 0 -127 -10q-66 -19 -86 -84h-66z" />
<glyph unicode="8" horiz-adv-x="1061" d="M-4 254q0 227 342 430q-164 119 -164 277q0 135 100 231q88 85 228 121q86 22 176 22q141 0 227 -57q103 -67 103 -201q0 -186 -293 -358q215 -137 215 -322q0 -155 -111 -261q-98 -94 -258 -132q-101 -24 -203 -24q-362 0 -362 274zM195 283q0 -107 69 -166 q65 -56 174 -56q106 0 178 63q76 67 76 171q0 153 -178 266l-117 74q-202 -186 -202 -352zM406 1061q0 -88 83 -172q41 -41 158 -123q154 162 154 319q0 78 -53 125t-132 47q-87 0 -147 -54q-63 -56 -63 -142z" />
<glyph unicode="9" horiz-adv-x="1120" d="M29 104q0 74 65 142q113 -158 260 -158q198 0 314 219q73 138 123 393q-197 -204 -418 -204q-129 0 -198 76t-69 206q0 179 122 320q111 129 290 192q116 41 232 41q327 0 327 -358q0 -231 -88 -438q-93 -222 -264 -357q-250 -198 -524 -198q-172 0 -172 124zM381 858 q0 -88 39 -143q45 -64 129 -64q184 0 252 238q18 63 18 123q0 221 -172 221q-179 0 -246 -223q-20 -67 -20 -152z" />
<glyph unicode=":" horiz-adv-x="602" d="M119 90q0 66 40 117q43 55 107 55q45 0 76 -30.5t31 -75.5q0 -73 -37 -124q-41 -57 -111 -57q-106 0 -106 115zM186 618q0 67 41 118.5t107 51.5q104 0 104 -106q0 -72 -37 -122q-41 -56 -110 -56q-105 0 -105 114z" />
<glyph unicode=";" horiz-adv-x="602" d="M70 -225q118 112 118 225q0 84 -65 164l110 82q21 16 54 16q94 0 94 -139q0 -101 -96 -217q-49 -59 -174 -170zM186 618q0 67 41 118.5t107 51.5q104 0 104 -106q0 -72 -37 -122q-41 -56 -110 -56q-105 0 -105 114z" />
<glyph unicode="&#x3c;" horiz-adv-x="1747" d="M270 543v164l1207 497v-188l-957 -391l957 -392v-184z" />
<glyph unicode="=" horiz-adv-x="1747" d="M260 330v170h1227v-170h-1227zM260 750v172h1227v-172h-1227z" />
<glyph unicode="&#x3e;" horiz-adv-x="1747" d="M270 49v184l957 392l-957 391v188l1207 -497v-164z" />
<glyph unicode="?" horiz-adv-x="866" d="M123 86q0 62 39 111q41 53 102 53q45 0 74 -29t29 -74q0 -69 -36 -118q-39 -54 -106 -54q-102 0 -102 111zM166 471q0 111 229 315h2q87 76 113 105q57 63 76 131q12 43 12 102q0 150 -106 150q-56 0 -88 -51q-27 -43 -27 -103q0 -47 4 -78v-4q0 -26 -51 -26 q-142 0 -142 123q0 106 123 159q95 41 215 41q135 0 221 -56q101 -65 101 -194q0 -190 -221 -303q-73 -33 -218 -104q-143 -75 -143 -162q0 -72 72 -110q-31 -52 -88 -72q-84 41 -84 137z" />
<glyph unicode="@" horiz-adv-x="2068" d="M143 549q0 429 344 713q278 229 658 229q344 0 557 -178q227 -191 227 -529t-233 -546q-129 -115 -266 -115q-207 0 -220 211q-125 -207 -309 -207q-149 0 -228 102q-71 93 -71 246q0 233 195 422q142 137 317 137q186 0 221 -190l54 172h176l-179 -635q-14 -50 -14 -94 q0 -105 82 -105q79 0 180 80q234 185 234 531q0 302 -208 475q-195 162 -503 162q-387 0 -630 -267q-236 -259 -236 -649q0 -352 244 -555q221 -184 563 -184t639 213l37 -49q-304 -230 -676 -230q-390 0 -639 187q-316 238 -316 653zM791 377q0 -74 30 -126q36 -63 105 -63 q122 0 227 179q125 214 125 424q0 74 -32 125q-38 61 -107 61q-126 0 -230 -197q-118 -223 -118 -403z" />
<glyph unicode="A" horiz-adv-x="1389" d="M-182 -10l16 55l162 33q651 1036 651 1184q0 16 -4 20l258 74q49 -514 283 -1278l168 -33l-17 -55q-6 0 -112 4l-138 6h-131q-36 0 -77 -2l-164 -8l16 55l162 33q-17 106 -76 401h-450q-82 -153 -175 -401l168 -33l-16 -55l-319 10h-11q-19 0 -53 -2zM397 557h402 q-29 148 -117 524q-143 -239 -285 -524z" />
<glyph unicode="B" horiz-adv-x="1296" d="M-31 -10l17 55l161 33q123 596 160 1155l-168 33l19 55q233 -12 284 -12q66 0 324 14q37 2 86 2q328 0 328 -262q0 -279 -369 -322q177 -18 256 -69q109 -70 109 -228q0 -242 -187 -358q-154 -96 -411 -96q-33 0 -172 6q-93 4 -201 4h-45zM440 98q99 -30 174 -30 q144 0 217 114q62 96 62 248q0 139 -68 202q-66 60 -207 60q-57 0 -114 -6q-41 -266 -64 -588zM514 772q24 0 51 -4q41 -6 49 -6q295 0 295 285q0 194 -188 194q-72 0 -129 -16q-53 -267 -78 -453z" />
<glyph unicode="C" horiz-adv-x="1176" d="M66 455q0 372 234 623q240 257 609 257q267 0 267 -123q0 -71 -160 -172l-21 9q-20 190 -225 190q-216 0 -328 -262q-88 -206 -88 -477q0 -176 81 -281q90 -117 261 -117q176 0 348 111l-8 -94q-227 -144 -497 -144q-473 0 -473 480z" />
<glyph unicode="D" horiz-adv-x="1528" d="M-31 -10l17 55l161 33q123 596 160 1155l-168 33l19 55q200 -14 329 -14l377 18q42 2 99 2q487 0 487 -479q0 -385 -262 -643q-219 -215 -592 -215q-51 0 -182 6q-88 4 -168 4h-47q-33 -3 -230 -10zM440 94q92 -24 207 -24q508 0 508 671q0 502 -389 502q-64 0 -162 -22 q-108 -439 -164 -1127z" />
<glyph unicode="E" horiz-adv-x="1237" d="M-31 -10l17 55l161 33q129 627 160 1153l-168 35l19 53q130 -9 364 -14l94 -2q35 -1 72 -1q148 0 332 13q36 2 49 4h21q57 0 57 -49q0 -15 -2 -19l-51 -219l-52 -16l-4 65q-5 75 -192 105q-37 5 -244 33q-47 -185 -90 -506q197 8 367 28l55 125l61 17q-69 -232 -82 -420 l-51 -29l-6 170q-166 27 -356 35q-49 -354 -58 -547q10 0 54 2q480 19 553 162l20 39l57 16l-65 -237q-16 -59 -51 -74q-23 -10 -92 -10q-16 0 -230 6q-142 4 -342 4h-110q-54 0 -97 -2z" />
<glyph unicode="F" horiz-adv-x="1106" d="M-31 -10l17 55l161 33q123 596 160 1155l-168 33l19 55l276 -14q79 -4 217 -4q19 0 99 4l239 12q40 2 88 2q60 0 60 -51q0 -11 -2 -19l-54 -219l-49 -16l-4 63q-7 107 -428 140q-47 -213 -88 -506q197 8 367 28l55 125l61 17q-69 -232 -82 -420l-51 -29l-6 170 q-166 27 -356 35q-47 -342 -60 -561l187 -33l-15 -55q-139 10 -331 10h-70q-34 0 -76 -2z" />
<glyph unicode="G" horiz-adv-x="1401" d="M68 455q0 376 245.5 628t620.5 252q311 0 311 -133q0 -74 -155 -172l-23 6q-41 209 -248 209q-226 0 -354 -246q-107 -206 -107 -469q0 -432 359 -432q69 0 184 25q37 209 53 381l-174 35l15 51q129 -12 286 -12q125 0 291 12l-16 -51l-144 -33q-41 -215 -53 -367 q-336 -164 -606 -164q-485 0 -485 480z" />
<glyph unicode="H" horiz-adv-x="1587" d="M-31 -10l17 55l161 33q123 596 160 1155l-168 33l19 55q18 -1 75 -6q127 -10 238 -10q38 2 229 10q34 2 78 6l-16 -55l-160 -33q-47 -223 -90 -504h582q41 283 53 504l-170 33l18 55q213 -16 305 -16q53 0 159 8t159 8l-16 -55l-160 -33q-131 -608 -164 -1155l168 -33 l-19 -55l-141 8q-35 2 -76 2h-184q-45 0 -80 -2l-139 -8l16 55l160 33q47 207 102 573h-585q-49 -352 -60 -573l168 -33l-18 -55l-139 8q-35 2 -78 2h-185q-41 0 -77 -2z" />
<glyph unicode="I" horiz-adv-x="758" d="M-27 -10l17 55l162 33q124 581 163 1155l-172 33l19 55q18 -1 76 -6q127 -10 237 -10q52 0 155.5 8t155.5 8l-16 -55l-162 -33q-131 -617 -164 -1155l168 -33l-14 -55l-141 8q-35 2 -78 2h-186q-42 0 -78 -2z" />
<glyph unicode="J" horiz-adv-x="690" d="M-127 -360q197 122 254 389q80 375 135 1204l-164 33l17 55q213 -16 321 -16q88 0 314 16l-17 -55l-172 -33q-12 -71 -35 -256l-41 -330q-2 -19 -7 -55l-27 -230q-17 -139 -50 -280q-47 -200 -170 -307q-100 -87 -337 -181z" />
<glyph unicode="K" horiz-adv-x="1450" d="M-31 -10l17 55l161 33q123 596 160 1155l-168 33l19 55q18 -1 75 -6q127 -10 238 -10q38 2 229 10q34 2 78 6l-16 -55l-158 -33q-45 -189 -90 -508q365 256 549 508l-150 33l17 55q180 -16 272 -16q51 0 152.5 8t152.5 8l-16 -55l-162 -33q-297 -193 -547 -410l133 -270 q248 -503 519 -508l-19 -55h-209q-119 0 -151 6q-76 14 -125 76q-113 143 -352 600l-82 -62q-45 -340 -56 -532l168 -33l-18 -55l-139 8q-35 2 -78 2h-185q-41 0 -77 -2z" />
<glyph unicode="L" horiz-adv-x="1184" d="M-31 -10l17 55l161 33q123 596 160 1155l-168 33l19 55q225 -16 313 -16q104 0 322 16l-17 -55l-172 -33q-141 -666 -162 -1141q172 0 328 29q232 43 279 135l20 39l57 16l-65 -237q-15 -55 -53 -72q-26 -12 -90 -12q-20 0 -234 6q-142 4 -338 4h-106q-53 0 -97 -2z" />
<glyph unicode="M" horiz-adv-x="1849" d="M-125 -10l19 55l163 33q179 461 349 1155l-177 33l17 55q155 -16 241 -16h54q24 0 45 2h43q22 0 43 2q59 -432 184 -916l324 533q96 159 188 385q111 -6 195 -6q47 0 140 8t140 8l-16 -55l-160 -33q-90 -533 -94 -1155l170 -33l-19 -55l-139 8q-35 2 -78 2h-186 q-43 0 -78 -2l-141 -8l18 55l158 33q61 354 94 1003q-44 -75 -201 -323l-65 -103l-12 -24q-37 -67 -140 -260q-81 -151 -106 -271l-170 -100q-13 115 -60 328q-25 110 -96 436l-41 192q-17 81 -26 138q-123 -398 -203 -1016l168 -33l-19 -55q-88 10 -262 10h-78 q-35 0 -65 -2z" />
<glyph unicode="N" horiz-adv-x="1450" d="M-57 -10l16 55l160 33q147 704 147 1155l-178 33l16 55h7q34 0 102 -6t102 -6q68 0 181 12q143 -311 606 -997q18 215 18 620v78q0 113 -6 211l-168 33l17 55q208 -12 268 -12q31 0 276 12l-18 -55l-160 -33q-147 -709 -158 -1180l-163 -82q-349 625 -660 1061 q-24 -303 -24 -643q0 -86 10 -311l166 -33l-17 -55l-118 8q-30 2 -68 2h-164q-40 0 -70 -2z" />
<glyph unicode="O" horiz-adv-x="1401" d="M66 453q0 343 190 583q111 140 271.5 219.5t336.5 79.5q463 0 463 -477q0 -262 -124 -477q-129 -225 -359 -334q-152 -72 -332 -72q-446 0 -446 478zM360 508q0 -438 273 -438q223 0 325 262q72 185 72 450q0 457 -272 457q-223 0 -326 -272q-72 -190 -72 -459z" />
<glyph unicode="P" horiz-adv-x="1137" d="M-31 -10l17 55l161 33q123 596 160 1155l-168 33l19 59q174 -18 256 -18q8 0 86 4l235 12q39 2 84 2q340 0 340 -297q0 -216 -172 -338q-152 -108 -389 -108h-49q-29 0 -62 4q-32 -258 -47 -508l178 -33l-16 -55l-143 8q-36 2 -80 2h-191q-41 0 -77 -2zM504 668 q49 -13 102 -13q266 0 266 383q0 203 -190 203q-31 0 -88 -8q-41 -211 -90 -565z" />
<glyph unicode="Q" horiz-adv-x="1401" d="M66 453q0 264 124 479q129 226 361 334q148 69 334 69q220 0 334 -131q108 -123 108 -346q0 -243 -102 -441q-106 -207 -307 -331q385 -463 645 -463q47 0 129 25l16 -49q-182 -86 -319 -86q-284 0 -558 292q-50 53 -163 183q-103 -13 -160 -13q-442 0 -442 478zM360 508 q0 -438 273 -438q223 0 325 262q72 185 72 450q0 457 -272 457q-223 0 -326 -272q-72 -190 -72 -459z" />
<glyph unicode="R" horiz-adv-x="1356" d="M-27 -10l17 55l162 33q124 581 163 1155l-172 33l19 55l219 -14q63 -4 162 -4q73 0 237 8q41 2 64 2q352 0 352 -281q0 -270 -352 -385l98 -219q177 -395 393 -395h8l-16 -53l-258 -13h-11q-87 0 -157 78q-97 107 -299 547q-37 -6 -106 -6q-33 -234 -52 -508l168 -33 l-14 -55l-141 8q-35 2 -78 2h-186q-42 0 -78 -2zM512 690q55 -10 98 -10q308 0 308 332q0 117 -48 167t-165 50q-15 0 -105 -6q-47 -222 -88 -533z" />
<glyph unicode="S" horiz-adv-x="1038" d="M-2 104q0 101 176 199l19 -8q16 -221 233 -221q99 0 160 59.5t61 157.5q0 135 -221 307q-18 14 -49 41q-71 62 -146 133q-49 57 -49 162q0 141 105 244q91 90 237 131q93 26 185 26q260 0 260 -123q0 -79 -158 -172l-20 9q-25 190 -209 190q-83 0 -132 -47.5t-49 -130.5 q0 -74 82 -156q34 -34 144 -117q252 -190 252 -362q0 -163 -119 -278q-104 -101 -273 -144q-114 -29 -213 -29q-276 0 -276 129z" />
<glyph unicode="T" horiz-adv-x="1266" d="M76 1024l51 238q13 61 66 61q16 0 79 -4q189 -12 482 -12q168 0 340 8l172 8h7q56 0 56 -45v-10q0 -5 -2 -8l-45 -213l-57 -23v45q0 92 -119 125q-48 13 -119 20l-135 13q-139 -699 -154 -1149l191 -33l-17 -55l-151 8q-38 2 -82 2h-197q-48 0 -86 -2l-151 -8l16 55 l185 33q124 588 163 1149q-169 -4 -229 -19q-116 -29 -182 -127l-23 -34z" />
<glyph unicode="U" horiz-adv-x="1485" d="M119 1266l12 55l78 -6q130 -10 235 -10q93 0 318 16l-17 -55l-159 -33q-97 -399 -125 -653q-12 -109 -12 -203q0 -305 305 -305q255 0 331 221q48 139 48 518q0 210 -7 309l-8 113l-168 33l17 55q74 -9 231 -14q62 -2 43 -2q48 0 143.5 8t143.5 8l-17 -55l-163 -33 q-30 -139 -62 -356l-53 -357q-14 -97 -41 -184q-111 -361 -537 -361q-462 0 -462 392q0 124 40 426l33 249q13 102 21 191z" />
<glyph unicode="V" horiz-adv-x="1339" d="M25 1266l16 55q18 -1 76 -6q127 -10 235 -10q52 0 156 8t156 8l-17 -55l-160 -33q27 -340 177 -946q352 581 477 946l-170 33l16 55q6 0 57 -4q154 -12 222 -12q61 0 258 16l-19 -55l-162 -33q-233 -320 -417 -600q-237 -360 -258 -592l-213 -70q-66 525 -262 1262z" />
<glyph unicode="W" horiz-adv-x="1937" d="M25 1266l16 55q79 -9 254 -14q70 -2 47 -2q40 0 227 10q23 2 86 6l-16 -55l-164 -33q25 -504 135 -954l70 127q289 524 289 757q0 13 -6 80l229 92q20 -456 164 -1052q243 499 356 950l-168 33l17 55q19 -1 73 -4l82 -6q82 -6 111 -6q76 0 252 16l-19 -55l-159 -33 q-200 -375 -299 -584q-187 -393 -230 -608l-219 -70q-18 228 -149 903q-318 -536 -394 -833l-209 -70q-48 374 -90 633q-60 370 -121 629z" />
<glyph unicode="X" horiz-adv-x="1249" d="M-178 -10l16 55l164 33q279 293 498 565q-115 315 -242 590l-168 33l14 55q234 -12 314 -12q71 0 293 12l-17 -55l-137 -33q49 -189 135 -418q156 201 279 418l-127 33l14 55q158 -12 240 -12q127 0 182 6q37 4 76 6l-17 -55l-159 -33q-230 -221 -461 -496 q139 -364 280 -659l168 -33l-18 -55l-141 8q-35 2 -76 2h-184q-44 0 -80 -2l-142 -8l17 55l155 33q-86 282 -166 491q-237 -299 -331 -491l149 -33l-18 -55q-117 10 -283 10h-57q-24 0 -53 -2z" />
<glyph unicode="Y" horiz-adv-x="1225" d="M14 1266l15 55q204 -16 295 -16q82 0 307 16l-19 -55l-155 -33q96 -268 235 -557q217 315 332 557l-158 33l17 55q188 -16 258 -16q80 0 235 16l-20 -55l-135 -33q-269 -322 -480 -631q-49 -334 -57 -524l188 -33l-16 -55q-111 10 -332 10h-98q-45 0 -84 -2l-154 -8 l17 55l184 33q55 254 86 500l-88 188q-115 246 -233 467z" />
<glyph unicode="Z" horiz-adv-x="1159" d="M0 82l23 29q535 674 800 1114h-4q-166 0 -302 -29q-205 -44 -255 -141l-24 -47l-64 -17l72 271q16 61 65 61q89 -9 340 -12q16 0 62 -1l49 -1q86 0 184 4l98 4q51 2 107 6l12 -94l-252 -326q-219 -284 -383 -526q-91 -135 -186 -291h-2q10 1 41 4q528 44 598 184l25 50 l63 20l-63 -291q-8 -39 -23 -51t-55 -12h-8q-9 0 -21 2q-221 8 -477 8h-113q-54 0 -102 -2l-193 -8z" />
<glyph unicode="[" horiz-adv-x="616" d="M29 -324q164 1020 278 1954h357l-9 -51h-139q-156 -926 -264 -1849h141l-8 -54h-356z" />
<glyph unicode="\" horiz-adv-x="621" d="M20 1577l189 41q178 -959 414 -1925l-189 -47q-186 1032 -414 1931z" />
<glyph unicode="]" horiz-adv-x="616" d="M-61 -324l4 54h143q154 921 264 1849h-141l8 51h356q-161 -977 -278 -1954h-356z" />
<glyph unicode="^" horiz-adv-x="2097" d="M422 918l516 579h219l514 -579h-106l-518 407l-519 -407h-106z" />
<glyph unicode="_" d="M0 -319h1049v-177h-1049v177z" />
<glyph unicode="`" d="M389 1380q0 97 94 97q51 0 107 -68l272 -332h-112l-291 205q-70 49 -70 98z" />
<glyph unicode="a" horiz-adv-x="1047" d="M29 123q0 520 377 737q106 61 206 80q73 14 215 14h54q28 0 65 4l-43 -172q-88 -352 -88 -538q0 -43 25 -43q22 0 94 78l45 -37q-203 -264 -346 -264q-84 0 -84 116q0 64 39 252l6 29q-173 -257 -332 -356q-66 -41 -131 -41q-102 0 -102 141zM281 246q0 -72 38 -72 q120 0 234 254q82 183 115 373q-133 14 -148 14q-82 0 -125 -70q-59 -97 -104 -393q-10 -66 -10 -106z" />
<glyph unicode="b" d="M37 18q38 81 100 551q61 457 127 623q69 172 225 307q171 148 334 148q123 0 123 -99q0 -51 -51 -110q-121 82 -217 82q-157 0 -266 -668l-23 -141q-5 -31 -18 -107q309 371 503 371q113 0 113 -184q0 -319 -213 -545q-240 -254 -545 -254q-98 0 -192 26zM315 143 q68 -12 121 -12q279 0 279 569q0 93 -43 93q-55 0 -176 -154q-150 -191 -181 -496z" />
<glyph unicode="c" horiz-adv-x="811" d="M45 209q0 267 166 502q182 258 444 258q156 0 156 -107q0 -76 -172 -157q-90 135 -143 135q-93 0 -140 -222q-32 -151 -32 -307q0 -139 100 -139q106 0 270 193l51 -46q-109 -139 -227 -225q-156 -114 -293 -114q-180 0 -180 229z" />
<glyph unicode="d" horiz-adv-x="1047" d="M29 123q0 344 158 558q172 232 503 269q41 259 213 467q190 230 424 230q119 0 119 -99q0 -49 -53 -110q-123 82 -217 82q-88 0 -136 -86q-28 -50 -53 -164l-55 -250q-64 -292 -98 -545q-19 -142 -19 -227q0 -43 25 -43q22 0 94 78l45 -37q-203 -264 -346 -264 q-84 0 -84 116q0 64 39 252l6 29q-173 -257 -332 -356q-66 -41 -131 -41q-102 0 -102 141zM281 246q0 -72 38 -72q120 0 234 254q82 183 115 373q-133 14 -148 14q-82 0 -125 -70q-59 -97 -104 -393q-10 -66 -10 -106z" />
<glyph unicode="e" horiz-adv-x="819" d="M45 201q0 308 193 540q73 88 182 152q122 72 223 72q145 0 145 -134q0 -130 -159 -229q-132 -82 -295 -106q-23 -97 -23 -193q0 -137 103 -137q110 0 270 194l49 -45q-266 -340 -512 -340q-176 0 -176 226zM344 561q89 0 145 47q60 50 60 137q0 86 -62 86t-96 -88 q-16 -42 -26 -86z" />
<glyph unicode="f" horiz-adv-x="664" d="M-705 -629q0 49 50 115q116 -117 305 -117q272 0 370 293q54 160 152 803q8 46 29 180l20 135q-98 0 -188 -39l-13 21q121 127 222 143q37 274 207 496q189 246 436 246q119 0 119 -99q0 -51 -52 -110q-118 82 -219 82q-100 0 -180 -269q-29 -97 -78 -350q86 -10 203 -10 q86 0 133 35l12 -29q-109 -127 -340 -127h-26l-31 -209q-105 -709 -225 -907q-110 -181 -306 -294q-199 -114 -409 -114q-191 0 -191 125z" />
<glyph unicode="g" horiz-adv-x="991" d="M-152 -625q0 64 54 115q149 -137 293 -137q231 0 376 870l15 90q1 8 8 68q-174 -261 -332 -358q-66 -41 -131 -41q-102 0 -102 141q0 520 377 737q106 61 206 80q73 14 215 14h54q28 0 65 4q-20 -65 -63 -311q-10 -52 -35 -203l-60 -381q-5 -33 -22 -129 q-78 -415 -350 -581q-175 -107 -359 -107q-209 0 -209 129zM281 246q0 -72 38 -72q120 0 234 254q82 183 115 373q-133 14 -148 14q-82 0 -125 -70q-59 -97 -104 -393q-10 -66 -10 -106z" />
<glyph unicode="h" horiz-adv-x="1110" d="M45 -29q13 62 70 391l47 273q45 264 108 498q27 101 54 149q81 143 220 248q156 117 304 117q117 0 117 -99q0 -53 -52 -110q-118 82 -217 82q-159 0 -270 -693l-49 -305q219 289 383 389q74 45 141 45q76 0 76 -84q0 -106 -47 -313t-47 -313q0 -41 26 -41q25 0 95 76 l43 -37q-209 -262 -347 -262q-84 0 -84 106q0 55 46 311q43 239 43 310q0 41 -29 41q-50 0 -133 -105q-59 -75 -107 -158q-94 -163 -125 -430q-80 -26 -211 -69q-26 -9 -55 -17z" />
<glyph unicode="i" horiz-adv-x="647" d="M53 672q228 293 365 293q69 0 69 -93q0 -33 -14 -116l-61 -361q-15 -89 -15 -119q0 -43 29 -43q33 0 98 78l41 -39q-231 -292 -368 -292q-70 0 -70 108q0 40 14 119l62 350q14 79 14 115q0 37 -27 37q-32 0 -98 -78zM270 1214q0 71 42 125q45 58 114 58q49 0 80 -33 t31 -82q0 -73 -39 -127q-43 -61 -113 -61q-51 0 -83 34.5t-32 85.5z" />
<glyph unicode="j" horiz-adv-x="569" d="M-582 -625q0 64 52 117q149 -139 292 -139q144 0 222 141q45 82 82 268l43 218q31 158 81 489q15 100 15 199q0 41 -29 41q-35 0 -96 -80l-43 39q231 297 360 297q74 0 74 -91q0 -47 -37 -301l-59 -405q-13 -87 -30 -188l-9 -48q-75 -414 -352 -579q-179 -107 -361 -107 q-205 0 -205 129zM250 1217q0 69 43 122q46 58 113 58q49 0 80.5 -33t31.5 -82q0 -72 -41 -127q-45 -61 -115 -61q-51 0 -81.5 35.5t-30.5 87.5z" />
<glyph unicode="k" horiz-adv-x="1032" d="M45 -29q13 62 70 391l47 273q45 264 108 498q27 101 54 149q81 143 220 248q156 117 304 117q117 0 117 -99q0 -53 -52 -110q-118 82 -217 82q-159 0 -270 -693l-49 -305q197 274 383 389q73 45 141 45q82 0 82 -84q0 -71 -78 -163q-59 59 -143 59q-82 0 -162 -74 q191 -555 283 -555q26 0 94 78l43 -35q-160 -207 -262 -207q-115 0 -195 179q-22 49 -119 362q-86 -90 -133 -459q-80 -26 -211 -69q-26 -9 -55 -17z" />
<glyph unicode="l" horiz-adv-x="565" d="M61 94q0 138 27 289l51 285q11 67 43 258q22 131 76 252q144 324 432 436q72 28 141 28q125 0 125 -98q0 -57 -51 -110q-119 82 -219 82q-85 0 -133 -82q-25 -43 -53 -160q-170 -712 -170 -1026q0 -43 24 -43q25 0 95 78l43 -37q-211 -258 -349 -258q-82 0 -82 106z" />
<glyph unicode="m" horiz-adv-x="1669" d="M20 694q228 258 365 258q78 0 78 -92q0 -104 -49 -342q203 283 374 389q72 45 142 45q69 0 69 -84q0 -77 -55 -350q135 186 232 279q161 155 282 155q74 0 74 -84q0 -38 -14 -123l-62 -376q-14 -85 -14 -127q0 -41 24 -41q25 0 93 75l43 -34q-209 -267 -340 -267 q-82 0 -82 115q0 104 43 307.5t43 307.5q0 40 -29 40q-129 0 -246 -274q-90 -211 -108 -401q-123 -37 -260 -99q80 364 104 568q10 84 10 166q0 40 -30 40q-50 0 -132 -104q-127 -161 -180 -344q-29 -102 -45 -240q-12 -2 -129 -41l-78 -26q-21 -7 -53 -19q81 364 106 570 q9 74 9 153q0 51 -29 51q-33 0 -115 -90z" />
<glyph unicode="n" horiz-adv-x="1153" d="M18 698q238 265 371 265q78 0 78 -99q0 -104 -49 -342q185 269 385 393q78 48 143 48q70 0 70 -91q0 -29 -15 -122l-61 -377q-14 -87 -14 -127q0 -41 24 -41q27 0 94 76l46 -37q-209 -262 -349 -262q-82 0 -82 106q0 105 43 310.5t43 310.5q0 41 -28 41q-50 0 -133 -105 q-66 -84 -109 -158q-94 -163 -121 -430q-45 -11 -213 -67q-26 -9 -53 -19l65 300q33 153 47 303q5 57 5 124q0 52 -29 52q-37 0 -119 -91z" />
<glyph unicode="o" horiz-adv-x="971" d="M37 258q0 221 105 395q109 182 307 267q109 47 202 47q250 0 250 -279q0 -274 -176 -485q-184 -221 -451 -221q-237 0 -237 276zM303 299q0 -209 121 -209q122 0 174 236q31 140 31 325q0 205 -119 205q-121 0 -174 -233q-33 -145 -33 -324z" />
<glyph unicode="p" horiz-adv-x="1126" d="M-602 -625q0 64 53 117q150 -139 297 -139q140 0 219 135q88 150 166 649l28 179q20 127 40 294q4 33 4 88q0 52 -29 52q-39 0 -119 -91l-41 39q242 263 377 263q74 0 74 -99q0 -100 -53 -336q116 156 235 267q179 168 297 168q115 0 115 -203q0 -293 -201 -531 q-209 -247 -498 -247h-26q-82 -502 -451 -676q-123 -58 -278 -58q-209 0 -209 129zM350 92q74 -20 117 -20q154 0 227 176q56 135 84 340q8 59 8 104q0 70 -49 70q-126 0 -256 -270q-101 -210 -131 -400z" />
<glyph unicode="q" horiz-adv-x="995" d="M29 123q0 520 377 737q106 61 206 80q73 14 215 14h54q28 0 65 4q-91 -327 -166 -921q-10 -78 -51 -369v-4q-37 -248 -147 -289l336 -10l-9 -57h-55q-32 0 -50.5 1t-4.5 1h-70q-321 0 -547 -64l11 86l114 13q108 12 139 112q24 77 138 854l10 68q-173 -257 -332 -356 q-66 -41 -131 -41q-102 0 -102 141zM281 246q0 -72 38 -72q120 0 234 254q82 183 115 373q-133 14 -148 14q-82 0 -125 -70q-59 -97 -104 -393q-10 -66 -10 -106z" />
<glyph unicode="r" horiz-adv-x="860" d="M18 698q238 265 371 265q78 0 78 -99q0 -102 -57 -364l10 -4q76 155 160 274q135 193 227 193q88 0 88 -105q0 -127 -162 -229q-39 73 -82 73q-115 0 -207 -260q-63 -178 -90 -385q-45 -11 -213 -67q-26 -9 -53 -19q45 207 59 279q35 177 48 280q10 78 10 166 q0 54 -29 54q-39 0 -119 -91z" />
<glyph unicode="s" horiz-adv-x="737" d="M-25 100q0 62 103 156q86 -164 213 -164q102 0 102 90q0 55 -104 154q-162 154 -162 285q0 115 84 203q73 77 192 116q76 25 150 25q166 0 166 -113q0 -76 -103 -133q-92 137 -192 137t-100 -84q0 -44 112 -156q80 -80 109 -127q45 -73 45 -157q0 -149 -148 -254 q-136 -96 -299 -96q-168 0 -168 118z" />
<glyph unicode="t" horiz-adv-x="694" d="M14 776q217 115 518 428l25 -24q-65 -154 -82 -279l107 -8q53 -4 61 -4q88 0 129 37l16 -21q-107 -135 -264 -135h-41q-34 0 -59 -154q-22 -134 -31 -272l-6 -90q0 -3 -2 -21v9q0 -41 25 -41q28 0 112 98l43 -43q-215 -274 -368 -274q-82 0 -82 94q0 136 39 354 q24 134 67 352q-98 -4 -188 -41z" />
<glyph unicode="u" horiz-adv-x="1153" d="M41 698q205 263 344 263q86 0 86 -109q0 -105 -47 -309.5t-47 -309.5q0 -40 29 -40q134 0 258 282q96 218 120 412q101 24 258 88q-51 -229 -104 -561q-12 -75 -12 -168q0 -41 26 -41q27 0 95 76l43 -35q-201 -258 -349 -258q-77 0 -77 104q0 98 28 227q5 24 19 103 q-192 -271 -383 -389q-73 -45 -144 -45q-73 0 -73 84q0 106 47 312t47 312q0 41 -29 41q-24 0 -92 -78z" />
<glyph unicode="v" horiz-adv-x="995" d="M18 672q213 293 336 293q93 0 121 -154q12 -66 12 -221q0 -230 -24 -428q205 221 295 432q33 78 33 143q0 49 -41 49q-29 0 -74 -45l-43 39q160 185 256 185q102 0 102 -113q0 -100 -108 -270q-178 -281 -351 -443q-59 -55 -145 -106q-105 -62 -166 -62h-12q-12 0 -14 17 l6 32q37 197 37 416q0 283 -66 283q-41 0 -106 -84z" />
<glyph unicode="w" horiz-adv-x="1516" d="M0 672q260 286 367 286q112 0 112 -233q0 -238 -73 -537q292 236 387 631q102 70 155 131l39 -24q-20 -111 -20 -267q0 -469 96 -469q76 0 166 222q82 203 82 297q0 65 -41 65q-21 0 -66 -41l-37 35q131 190 238 190q88 0 88 -106q0 -222 -254 -584q-192 -274 -313 -274 q-164 0 -181 481q-96 -149 -256 -305q-201 -195 -315 -195q-31 0 -31 25q0 20 17 86q69 267 69 504q0 129 -49 129q-37 0 -108 -84z" />
<glyph unicode="x" horiz-adv-x="905" d="M-84 109q0 7 1 23t1 24q55 -9 76 -9q172 0 336 285q-70 287 -121 287q-37 0 -94 -84l-43 37q61 96 129 174q103 119 168 119q64 0 108 -166q1 -4 51 -215q71 123 162 264q76 117 178 117q49 0 77 -47q24 -39 24 -91q0 -30 -6 -32q-9 -4 -41 -4q-211 0 -373 -287l4 -8 q74 -279 125 -279q39 0 102 90l43 -39q-174 -268 -303 -268q-78 0 -117 115q-18 82 -55 243l-69 -135q-127 -248 -261 -248q-102 0 -102 129v5z" />
<glyph unicode="y" horiz-adv-x="1094" d="M-61 -625q0 64 53 117q147 -139 295 -139q242 0 383 840l22 131q4 26 15 98q-192 -271 -383 -389q-73 -45 -144 -45q-74 0 -74 84q0 106 47.5 312t47.5 312q0 41 -29 41q-27 0 -94 -78l-41 39q205 263 344 263q86 0 86 -109q0 -44 -14 -123l-66 -371q-16 -90 -16 -125 q0 -40 30 -40q134 0 258 282q97 221 121 412q22 5 117 39l139 49q-28 -137 -65 -369l-39 -246q-48 -305 -80 -460q-17 -85 -37 -148q-71 -226 -252 -365q-185 -141 -420 -141q-204 0 -204 129z" />
<glyph unicode="z" horiz-adv-x="848" d="M-61 10q393 490 688 744q-49 -21 -123 -21q-31 4 -180 19q-20 2 -50 2q-108 0 -163 -107l-45 17q64 133 110 190q83 102 184 102q23 0 68 -8l195 -35q45 -8 65 -8q76 0 143 51l29 -34q-424 -508 -684 -721q90 20 168 20q9 0 184 -22q32 -4 45 -4q117 0 185 139l45 -19 q-72 -176 -96 -213q-75 -114 -189 -114q-34 0 -78 10l-215 49q-44 10 -78 10q-81 0 -184 -69z" />
<glyph unicode="{" d="M182 616v70q161 16 221 80t60 225v205q0 212 94 289q82 67 313 67v-57q-139 -4 -187 -69q-40 -55 -40 -203v-142q0 -216 -45 -295q-57 -100 -227 -135q173 -39 227 -137q45 -82 45 -297v-139q0 -151 38 -203q46 -63 189 -68v-57h-10q-223 0 -305 68q-92 76 -92 286v207 q0 162 -60 227.5t-221 77.5z" />
<glyph unicode="|" d="M434 -496v2098h182v-2098h-182z" />
<glyph unicode="}" d="M178 -193q142 5 189 68q39 53 39 203v139q0 213 45 297q52 98 227 137q-173 35 -227 135q-45 84 -45 295v142q0 148 -40 203q-48 65 -188 69v57h10q229 0 310 -67q92 -76 92 -289v-205q0 -162 58.5 -225.5t219.5 -79.5v-70q-164 -12 -221 -75.5t-57 -229.5v-207 q0 -210 -92 -286q-82 -68 -310 -68h-10v57z" />
<glyph unicode="~" horiz-adv-x="1747" d="M182 444v191q219 147 396 147q149 0 303 -61q10 -4 41 -16q157 -58 258 -58q172 0 387 156v-189q-211 -143 -391 -143q-102 0 -273 61q-212 76 -325 76q-166 0 -396 -164z" />
<glyph unicode="&#xa0;" horiz-adv-x="965" d="M41 -41q22 106 45 317q27 252 37 320q65 464 186 711q166 338 461 338q111 0 111 -84q0 -50 -37 -95q-115 58 -189 58q-190 0 -327 -889q68 118 168 207q124 110 237 110q98 0 98 -108q0 -201 -270 -318q200 -354 350 -538q250 -307 465 -307q98 0 148 71q45 63 45 164 q0 35 -2 47l20 4q74 -47 74 -114q0 -113 -127 -176q-101 -50 -225 -50q-502 0 -924 869l21 24q106 12 182 79q84 73 84 175q0 70 -56 70q-73 0 -178 -119q-149 -169 -170 -465q-7 -92 -12 -203q-98 -30 -215 -98z" />
<glyph unicode="&#xa1;" horiz-adv-x="633" d="M115 68q0 48 49 231l182 678l78 -21q-59 -452 -59 -645q0 -164 55 -164q33 0 67 23l21 -43q-207 -152 -318 -152q-75 0 -75 93zM311 1163q0 69 34 117q38 55 104 55q104 0 104 -110q0 -64 -39 -112q-41 -52 -104 -52q-41 0 -70 30.5t-29 71.5z" />
<glyph unicode="&#xa2;" horiz-adv-x="811" d="M49 401q0 228 106 413q109 191 308 292q12 76 33 229l125 -12l-5 -18q-6 -23 -28 -150q53 8 71 8q60 0 103 -24q53 -29 53 -84q0 -76 -172 -158q-90 135 -143 135q-90 0 -138 -219q-34 -155 -34 -305q0 -143 100 -143q109 0 270 196l52 -47q-148 -190 -328 -289 q-19 -104 -41 -288v-19l-133 16q33 138 51 248q-47 -10 -61 -10q-189 0 -189 229z" />
<glyph unicode="&#xa3;" horiz-adv-x="1126" d="M2 37q149 104 205 220q53 110 53 296v16q0 9 -2 25v41l-168 -10l8 112h166q19 594 498 594q124 0 213 -43q115 -56 115 -168q0 -69 -53 -108q-47 -35 -119 -35q-39 0 -60 6q27 68 27 115q0 155 -123 155q-124 0 -174 -172q-23 -80 -31 -166l-16 -178l299 4l-9 -116 l-305 10q-34 -295 -239 -418q88 21 153 21q21 0 80 -9l223 -34q59 -9 80 -9q119 0 172 170h60q-30 -149 -43 -190q-60 -191 -219 -191q-29 0 -103 15l-149 30q-228 46 -258 46q-129 0 -242 -84z" />
<glyph unicode="&#xa4;" horiz-adv-x="1270" d="M78 442l209 209q-82 109 -82 254q0 146 82 254l-209 209l94 96l209 -207q108 82 254 82q149 0 258 -82l209 207l94 -96l-209 -209q82 -112 82 -254q0 -141 -82 -254l209 -209l-94 -94l-209 209q-111 -82 -254 -82q-150 0 -258 82l-209 -209zM340 905q0 -126 86.5 -210.5 t212.5 -84.5q124 0 209.5 85.5t85.5 209.5q0 126 -84.5 212.5t-210.5 86.5t-212.5 -86.5t-86.5 -212.5z" />
<glyph unicode="&#xa5;" horiz-adv-x="1204" d="M29 1266l16 55q10 0 61 -4q152 -12 218 -12q79 0 292 16l-18 -55l-156 -33q93 -262 230 -543q190 260 311 543l-156 33l17 55q188 -16 250 -16q39 0 115.5 8t115.5 8l-16 -55l-138 -33q-131 -152 -274 -371h270l-22 -82h-305l-111 -159h401l-20 -82h-408 q-47 -256 -55 -461l184 -33l-14 -55q-129 10 -293 10h-84q-42 0 -84 -2l-168 -8l17 55l184 33q57 221 94 461h-422l21 82h389l-74 159h-305l23 82h245q-10 20 -47 92q-42 83 -145 279z" />
<glyph unicode="&#xa6;" d="M434 -358v776h182v-776h-182zM434 690v776h182v-776h-182z" />
<glyph unicode="&#xa7;" horiz-adv-x="946" d="M49 -131q0 53 53 94l17 -4q110 -121 237 -121q154 0 154 129q0 47 -37 101q-22 33 -164 137q-229 168 -229 327q0 220 272 279q-123 102 -123 229q0 142 125 224q108 71 254 71q211 0 211 -116q0 -43 -45 -82h-12q-105 116 -223 116q-142 0 -142 -120q0 -67 68 -136 q34 -34 121 -100q73 -55 94 -72q55 -45 86 -82q61 -73 61 -186q0 -217 -270 -276q121 -101 121 -228q0 -152 -137 -233q-111 -66 -277 -66q-215 0 -215 115zM242 594q0 -75 91.5 -164.5t166.5 -89.5q60 0 105.5 46t45.5 106q0 78 -90 165.5t-168 87.5q-60 0 -105.5 -45.5 t-45.5 -105.5z" />
<glyph unicode="&#xa8;" horiz-adv-x="1237" d="M-31 -10l17 55l161 33q129 627 160 1153l-168 35l19 53q130 -9 364 -14l94 -2q173 -4 404 12q36 2 49 4h21q57 0 57 -49q0 -15 -2 -19l-51 -219l-52 -16l-4 65q-5 75 -192 105q-37 5 -244 33q-47 -185 -90 -506q197 8 367 28l55 125l61 17q-69 -232 -82 -420l-51 -29 l-6 170q-166 27 -356 35q-49 -354 -58 -547q10 0 54 2q480 19 553 162l20 39l57 16l-65 -237q-16 -59 -51 -74q-23 -10 -92 -10q-16 0 -230 6q-142 4 -342 4h-110q-54 0 -97 -2zM379 1640q0 55 39 92t94 37q57 0 94 -36t37 -93q0 -133 -131 -133q-55 0 -94 39t-39 94z M762 1640q0 56 37.5 92.5t93.5 36.5q57 0 94 -36t37 -93q0 -133 -131 -133q-56 0 -93.5 38.5t-37.5 94.5z" />
<glyph unicode="&#xa9;" horiz-adv-x="1724" d="M123 694q0 229 123.5 412.5t335.5 271.5q135 56 282 56q310 0 524 -215t214 -525q0 -222 -125 -409.5t-330 -270.5q-136 -55 -285 -55q-311 0 -525 212t-214 523zM225 694q0 -270 183.5 -455.5t453.5 -185.5q194 0 353.5 108.5t234.5 289.5q49 118 49 243 q0 271 -182.5 456t-452.5 185q-269 0 -454 -186t-185 -455zM426 686q0 187 120 315.5t306 128.5q45 0 125 -32q88 -35 113 -35q51 0 61 63h41l4 -327h-49q-66 278 -281 278q-241 0 -241 -377q0 -389 260 -389q164 0 282 181l45 -29q-127 -217 -358 -217q-185 0 -306.5 127 t-121.5 313z" />
<glyph unicode="&#xaa;" horiz-adv-x="784" d="M25 733q0 367 278 516q123 66 318 66h75q10 2 15 2q-99 -339 -99 -498q0 -31 19 -31q18 0 71 56l31 -25q-151 -186 -258 -186q-61 0 -61 82q0 51 30 198q-65 -96 -151 -174q-116 -106 -195 -106q-73 0 -73 100zM213 819q0 -51 29 -51q83 0 170 176q64 129 88 260 q-62 13 -111 13q-63 0 -96 -50q-51 -76 -74 -278q-6 -53 -6 -70z" />
<glyph unicode="&#xab;" horiz-adv-x="1024" d="M37 479l4 31q207 123 451 375l51 -31q-78 -149 -256 -354q88 -166 119 -373l-62 -23q-129 232 -307 375zM459 479l8 31q207 127 446 375l52 -31q-82 -154 -258 -354q88 -168 120 -373l-61 -23q-137 238 -307 375z" />
<glyph unicode="&#xac;" horiz-adv-x="1747" d="M260 713v170h1227v-514h-170v344h-1057z" />
<glyph unicode="&#xad;" horiz-adv-x="729" d="M37 381q145 233 258 233q29 0 88 -8t88 -8q88 0 156 61l37 -24q-152 -238 -263 -238q-19 0 -88 11q-50 8 -88 8q-92 0 -153 -62z" />
<glyph unicode="&#xae;" horiz-adv-x="1724" d="M123 694q0 302 214 521t515 219h12q315 0 526.5 -216.5t211.5 -531.5q0 -293 -234 -524q-205 -203 -520 -203q-218 0 -402 125t-268 328q-55 134 -55 282zM225 694q0 -270 183.5 -455.5t453.5 -185.5q196 0 355 110q156 107 233 290q49 116 49 241q0 270 -182.5 455.5 t-452.5 185.5q-273 0 -456 -184t-183 -457zM479 295v45q62 4 84 22q31 21 31 78v533q0 56 -31 78q-23 16 -84 22v49h408q121 0 211 -41q116 -53 116 -159q0 -166 -288 -215q211 -58 231 -256q11 -111 55 -111q62 0 62 135h49v-22q0 -179 -174 -179q-95 0 -137 60 q-16 23 -23 108q-1 12 -12 103q-33 147 -186 147h-25v-252q0 -87 111 -98v-47h-398zM766 741q20 -4 53 -4q215 0 215 176q0 74 -48.5 117t-123.5 43q-96 0 -96 -69v-263z" />
<glyph unicode="&#xaf;" horiz-adv-x="1537" d="M119 90q0 66 40 117q43 55 107 55q45 0 76 -30.5t31 -75.5q0 -73 -37 -124q-41 -57 -111 -57q-106 0 -106 115zM597 90q0 66 40 117q43 55 107 55q45 0 76 -30.5t31 -75.5q0 -73 -37 -124q-41 -57 -111 -57q-106 0 -106 115zM1089 90q0 66 40 117q43 55 107 55 q45 0 76 -30.5t31 -75.5q0 -73 -37 -124q-41 -57 -111 -57q-106 0 -106 115z" />
<glyph unicode="&#xb0;" horiz-adv-x="690" d="M45 1192q0 129 86 216t215 87t215 -87t86 -216q0 -128 -87.5 -215.5t-215.5 -87.5q-130 0 -214.5 86.5t-84.5 216.5zM156 1192q0 -78 56 -133t134 -55q80 0 134.5 54.5t54.5 133.5q0 81 -54 135.5t-135 54.5t-135.5 -54.5t-54.5 -135.5z" />
<glyph unicode="&#xb1;" horiz-adv-x="1747" d="M260 14v172h1227v-172h-1227zM260 725v168h526v342h175v-342h526v-168h-526v-344h-175v344h-526z" />
<glyph unicode="&#xb2;" horiz-adv-x="694" d="M-61 553q211 147 311 240q196 182 196 323q0 61 -28 102q-32 48 -90 48q-123 0 -123 -117q0 -47 24 -92q-34 -15 -63 -15q-80 0 -80 74q0 94 115 156q95 51 205 51q245 0 245 -178q0 -140 -153 -264q-89 -72 -351 -234h13q14 0 41 2t41 2h127q12 0 35.5 -2t35.5 -2 q60 0 88.5 19t49.5 75h38l-22 -77q-40 -140 -119 -140h-18q-17 0 -44 2q-34 2 -44 2q-120 4 -222 4h-84q-12 0 -116 -8z" />
<glyph unicode="&#xb3;" horiz-adv-x="682" d="M-29 610q0 64 86 99q35 -148 160 -148q82 0 133 53.5t51 135.5q0 151 -208 151h-13l25 51q237 17 237 195q0 123 -123 123q-122 0 -122 -144v-18q2 -12 2 -18q-17 -9 -37 -9q-76 0 -76 66q0 83 119 135q94 41 201 41q89 0 153 -35q80 -43 80 -125q0 -157 -258 -209 q211 -18 211 -180q0 -126 -148 -199q-127 -63 -270 -63q-203 0 -203 98z" />
<glyph unicode="&#xb4;" d="M451 1077l340 332q70 68 122 68q41 0 68 -29t27 -70q0 -57 -78 -100l-365 -201h-114z" />
<glyph unicode="&#xb5;" horiz-adv-x="1212" d="M-111 -328q0 118 78 355q33 88 103 354l110 524h213l-102 -477q-23 -108 -23 -141q0 -144 142 -144q172 0 221 228l114 534h213l-114 -545q-21 -41 -21 -127q0 -94 90 -94q80 0 131 94q10 21 32 64q25 47 44 47q23 0 23 -33q0 -81 -58 -188q-80 -148 -225 -148 q-176 0 -180 215q-88 -215 -274 -215q-207 0 -230 230q-23 -127 -49 -322q-41 -313 -137 -313q-101 0 -101 102z" />
<glyph unicode="&#xb6;" d="M57 1157q0 171 117 268q109 91 283 91h534v-103h-119v-1413h-131v1413h-172v-1413h-135v803q-164 6 -267 97q-110 96 -110 257z" />
<glyph unicode="&#xb7;" horiz-adv-x="602" d="M160 655q0 60 41.5 102t101.5 42q62 0 100.5 -41t38.5 -103q0 -57 -41 -98t-98 -41q-59 0 -101 40.5t-42 98.5z" />
<glyph unicode="&#xb8;" horiz-adv-x="819" d="M45 201q0 308 193 540q73 88 182 152q122 72 223 72q145 0 145 -134q0 -130 -159 -229q-132 -82 -295 -106q-23 -97 -23 -193q0 -137 103 -137q110 0 270 194l49 -45q-266 -340 -512 -340q-176 0 -176 226zM319 1266q0 54 39 92.5t93 38.5q57 0 94 -37t37 -94 q0 -58 -36.5 -95.5t-94.5 -37.5q-56 0 -94 38.5t-38 94.5zM344 561q89 0 145 47q60 50 60 137q0 86 -62 86t-96 -88q-16 -42 -26 -86zM700 1266q0 53 39 92t92 39q57 0 95.5 -37t38.5 -94q0 -59 -37.5 -96t-96.5 -37q-55 0 -93 39t-38 94z" />
<glyph unicode="&#xb9;" horiz-adv-x="2251" d="M-57 -10l16 55l160 33q147 704 147 1155l-178 33l16 55h7q34 0 102 -6t102 -6q68 0 181 12q143 -311 606 -997q18 215 18 620v78q0 113 -6 211l-168 33l17 55q208 -12 268 -12q31 0 276 12l-18 -55l-160 -33q-147 -709 -158 -1180l-163 -82q-349 625 -660 1061 q-24 -303 -24 -643q0 -86 10 -311l166 -33l-17 -55l-118 8q-30 2 -68 2h-164q-40 0 -70 -2zM1440 311l9 84l566 3q-4 0 -9 -93zM1479 742q0 217 131 393q143 192 342 192q219 0 219 -254q0 -214 -129 -397q-142 -201 -340 -201q-223 0 -223 267zM1684 791q0 -219 109 -219 q106 0 149 200q25 117 25 277q0 188 -99 188q-103 0 -151 -184q-33 -126 -33 -262z" />
<glyph unicode="&#xba;" horiz-adv-x="729" d="M29 827q0 158 81 281t226 182q81 33 151 33q191 0 191 -195q0 -200 -136 -346q-138 -149 -337 -149q-176 0 -176 194zM229 856q0 -147 90 -147q89 0 127 163q25 108 25 230q0 143 -90 143q-87 0 -127 -162q-25 -102 -25 -227z" />
<glyph unicode="&#xbb;" horiz-adv-x="1024" d="M33 135q84 160 258 357q-94 174 -121 368l59 25q133 -238 308 -377l-5 -29q-215 -131 -448 -377zM455 135q88 168 256 357q-88 161 -119 368l59 25q135 -236 310 -377l-7 -29q-206 -125 -446 -377z" />
<glyph unicode="&#xbc;" horiz-adv-x="1569" d="M-45 573l8 37l160 19q76 309 98 590q-104 -27 -176 -37l4 35q158 32 332 108l39 -14q-82 -334 -113 -682l168 -19l-8 -37h-150q-18 0 -54 2.5t-54 2.5q-28 0 -84 -2.5t-84 -2.5h-86zM170 14q483 674 915 1368l119 -84q-446 -616 -913 -1368zM860 281q283 245 410 430 q90 18 160 39l38 -13q-41 -129 -75 -418h24q74 0 82 39h41q-10 -32 -39 -98q-20 -35 -47 -35q-12 0 -37 2t-37 2q-10 -53 -20 -204q-86 -17 -139 -41l-37 20q16 62 41 197q2 6 2 10q0 20 -39 25h-41q-21 -3 -29 -3q-170 0 -244 -12zM965 315l6 2q33 11 78 11h24q30 0 74 -4 h98l35 219q3 16 7 49l9 67q-174 -225 -331 -344z" />
<glyph unicode="&#xbd;" horiz-adv-x="1524" d="M-45 573l8 37l160 19q76 309 98 590q-104 -27 -176 -37l4 35q158 32 332 108l39 -14q-82 -334 -113 -682l168 -19l-8 -37h-150q-18 0 -54 2.5t-54 2.5q-28 0 -84 -2.5t-84 -2.5h-86zM170 14q483 674 915 1368l119 -84q-446 -616 -913 -1368zM803 29l167 111 q91 63 158 124q158 145 158 289q0 139 -110 139q-117 0 -117 -110q0 -43 22 -86q-30 -13 -61 -13q-76 0 -76 70q0 88 111 145q92 47 194 47q236 0 236 -163q0 -133 -148 -250q-66 -52 -163 -113q-3 -2 -170 -104h8q45 4 78 4h127q40 -4 65 -4q57 0 83 17t46 69h39 q-49 -201 -135 -201h-17q-4 0 -34 2q-110 6 -260 6h-82q-12 0 -111 -8z" />
<glyph unicode="&#xbe;" horiz-adv-x="1708" d="M-29 659q0 58 82 91q37 -138 152 -138q76 0 126 49t50 125q0 144 -197 144h-10l21 45q227 16 227 182q0 113 -115 113q-121 0 -121 -131q0 -41 -30 -41q-74 0 -74 59q0 81 115 129q89 37 192 37q219 0 219 -152q0 -147 -246 -194q203 -19 203 -166q0 -118 -141 -188 q-117 -58 -258 -58q-195 0 -195 94zM307 14q459 631 916 1368l120 -84q-460 -634 -915 -1368zM999 281q267 233 408 430q100 20 160 39l39 -13q-41 -143 -74 -418h24q70 0 82 39h39q-10 -32 -39 -98q-20 -35 -47 -35q-12 0 -35.5 2t-35.5 2q-13 -90 -21 -204 q-84 -15 -139 -41l-37 20q23 82 41 197v6q0 24 -41 29h-37q-18 -3 -29 -3q-172 0 -245 -12zM1102 315l8 2q44 11 88 11h16q23 0 47 -2t25 -2h98l35 219q7 41 15 116q-174 -225 -332 -344z" />
<glyph unicode="&#xbf;" horiz-adv-x="866" d="M33 221q0 173 203 297q77 47 213 123q120 67 120 154q0 75 -77 110q30 56 86 78q90 -35 90 -135q0 -115 -201 -316l-4 -6q-153 -146 -172 -239q-8 -39 -8 -70q0 -176 106 -176q54 0 86 44q29 39 29 95v8q0 13 -5 38t-5 38v8q4 35 63 35q133 0 133 -112q0 -115 -131 -177 q-100 -47 -229 -47q-127 0 -207 60q-90 67 -90 190zM492 1163q0 70 35 118q39 54 106 54q104 0 104 -110q0 -62 -39 -111q-41 -53 -102 -53q-45 0 -74.5 28.5t-29.5 73.5z" />
<glyph unicode="&#xc0;" horiz-adv-x="1389" d="M-182 -10l16 55l162 33q651 1036 651 1184q0 16 -4 20l258 74q49 -514 283 -1278l168 -33l-17 -55q-6 0 -112 4l-138 6h-131q-36 0 -77 -2l-164 -8l16 55l162 33q-17 106 -76 401h-450q-82 -153 -175 -401l168 -33l-16 -55l-319 10q-19 1 -64 -2zM397 557h402 q-29 148 -117 524q-143 -239 -285 -524z" />
<glyph unicode="&#xc1;" horiz-adv-x="1296" d="M-31 -10l17 55l161 33q123 596 160 1155l-168 33l19 55l276 -14q79 -4 217 -4q19 0 99 4l239 12q40 2 88 2q60 0 60 -51q0 -11 -2 -19l-54 -219l-49 -16l-4 63q-7 107 -428 140q-15 -63 -51 -228q-6 -28 -35 -219q57 0 150 -12l147 -19q187 -24 256 -69q109 -71 109 -228 q0 -242 -187 -358q-154 -96 -411 -96q-33 0 -172 6q-93 4 -201 4h-45zM440 98q99 -30 174 -30q144 0 217 114q62 96 62 248q0 139 -68 202q-66 60 -207 60q-57 0 -114 -6q-41 -266 -64 -588z" />
<glyph unicode="&#xc2;" horiz-adv-x="1364" d="M-31 -10l17 55l161 33q123 596 160 1155l-168 33l19 55q233 -12 284 -12q66 0 324 14q37 2 86 2q328 0 328 -262q0 -279 -369 -322q177 -18 256 -69q109 -70 109 -228q0 -242 -187 -358q-154 -96 -411 -96q-33 0 -172 6q-93 4 -201 4h-45zM440 98q99 -30 174 -30 q144 0 217 114q62 96 62 248q0 139 -68 202q-66 60 -207 60q-57 0 -114 -6q-41 -266 -64 -588zM514 772q24 0 51 -4q41 -6 49 -6q295 0 295 285q0 194 -188 194q-72 0 -129 -16q-53 -267 -78 -453z" />
<glyph unicode="&#xc3;" horiz-adv-x="1106" d="M-31 -10l17 55l161 33q123 596 160 1155l-168 33l19 55l276 -14q79 -4 217 -4q19 0 99 4l239 12q40 2 88 2q60 0 60 -51q0 -11 -2 -19l-54 -219l-49 -16l-4 63q-7 107 -428 140q-51 -227 -88 -506l-27 -203q-40 -301 -45 -432l187 -33l-15 -55q-139 10 -331 10h-70 q-34 0 -76 -2z" />
<glyph unicode="&#xc4;" horiz-adv-x="1339" d="M-211 -221l53 235q14 64 66 64q16 0 69 -4q650 934 678 1192l215 69q31 -264 99 -585l39 -183q21 -98 75 -301q13 -49 50 -190q12 0 35.5 1t33.5 1q64 1 64 -47v-13q0 -3 -2 -6l-45 -213l-58 -20v45q0 71 -69 102q-55 25 -240 43q-153 15 -250 15q-49 0 -146.5 -2 t-146.5 -2h-26q-148 0 -228 -20q-127 -32 -184 -124l-23 -37zM182 76l107 -8q120 -9 182 -9h29q41 0 91.5 1t59.5 1h191l-4 15q-23 85 -33 196q-13 138 -25 201q-54 280 -118 547q-357 -588 -480 -944z" />
<glyph unicode="&#xc5;" horiz-adv-x="1237" d="M-31 -10l17 55l161 33q129 627 160 1153l-168 35l19 53q130 -9 364 -14l94 -2q173 -4 404 12q36 2 49 4h21q57 0 57 -49q0 -15 -2 -19l-51 -219l-52 -16l-4 65q-5 75 -192 105q-37 5 -244 33q-47 -185 -90 -506q197 8 367 28l55 125l61 17q-69 -232 -82 -420l-51 -29 l-6 170q-166 27 -356 35q-49 -354 -58 -547q10 0 54 2q480 19 553 162l20 39l57 16l-65 -237q-16 -59 -51 -74q-23 -10 -92 -10q-16 0 -230 6q-142 4 -342 4h-110q-54 0 -97 -2z" />
<glyph unicode="&#xc6;" horiz-adv-x="2111" d="M-193 45q221 4 445 246q96 103 213 262q181 244 203 270q-191 217 -435 410l-151 33l-2 55l55 -4q165 -12 246 -12q92 0 276 16l2 -55l-159 -33q108 -236 405 -502q33 252 49 502l-168 33l17 55l78 -6q130 -10 235 -10q31 0 232 10q18 1 77 6l-16 -55l-160 -33 q-51 -234 -90 -508q375 262 549 508l-149 33l18 55q176 -16 270 -16q51 0 153.5 8t153.5 8l-16 -55l-164 -33q-284 -184 -544 -410q38 -79 133 -270q78 -157 149 -260q167 -244 369 -248l-21 -55h-209q-119 0 -151 6q-76 14 -125 76q-113 143 -352 600l-82 -62 q-43 -291 -56 -532l168 -33l-16 -55l-139 8q-35 2 -78 2h-186q-40 0 -76 -2l-144 -8l17 55l162 33q49 237 96 540l-55 54l-164 -203q-143 -177 -264 -309q-66 -72 -95 -97q-59 -51 -137 -65q-44 -8 -154 -8h-208z" />
<glyph unicode="&#xc7;" horiz-adv-x="1108" d="M-45 143q0 107 131 164q53 -246 242 -246q125 0 204 97q74 91 74 219q0 252 -315 252h-17l33 84q159 12 253 87q108 86 108 238q0 201 -181 201q-188 0 -188 -235v-21q0 -14 2 -33q0 -20 -55 -20q-115 0 -115 108q0 139 176 224q143 69 307 69q147 0 240 -60 q111 -71 111 -210q0 -262 -387 -346q141 -15 223 -84q94 -78 94 -213q0 -205 -215 -330q-186 -108 -418 -108q-307 0 -307 163z" />
<glyph unicode="&#xc8;" horiz-adv-x="1450" d="M115 53q110 447 157 1180l-149 33l-6 55l274 -12q40 -2 273 12l2 -55l-179 -33q-22 -68 -41 -137l-43 -152q-89 -316 -149 -620l301 325q199 214 297 327q166 189 276 345q99 -12 179 -12q36 0 107.5 6t107.5 6l2 -55l-189 -33q-93 -341 -139 -825q-17 -179 -25 -330 l152 -33l2 -55l-121 8q-30 2 -67 2h-164q-39 0 -70 -2l-123 -8l2 55l174 33q140 436 244 954q-424 -434 -944 -1061z" />
<glyph unicode="&#xc9;" horiz-adv-x="1450" d="M115 53q110 447 157 1180l-149 33l-6 55l274 -12q40 -2 273 12l2 -55l-179 -33q-22 -68 -41 -137l-43 -152q-89 -316 -149 -620l301 325q199 214 297 327q166 189 276 345q99 -12 179 -12q36 0 107.5 6t107.5 6l2 -55l-189 -33q-93 -341 -139 -825q-17 -179 -25 -330 l152 -33l2 -55l-121 8q-30 2 -67 2h-164q-39 0 -70 -2l-123 -8l2 55l174 33q140 436 244 954q-424 -434 -944 -1061zM592 1563q0 186 201 186q26 -143 176 -182q42 -11 63 -11q154 0 293 113l4 -63q-100 -78 -232 -125q-136 -49 -259 -49q-89 0 -154 24q-92 34 -92 107z" />
<glyph unicode="&#xca;" horiz-adv-x="1401" d="M-31 -10l17 55l161 33q123 596 160 1155l-168 33l19 55q18 -1 75 -6q127 -10 238 -10q38 2 229 10q34 2 78 6l-16 -55l-158 -33q-45 -189 -90 -508q365 256 549 508l-150 33l17 55q180 -16 272 -16q51 0 152.5 8t152.5 8l-16 -55l-162 -33q-297 -193 -547 -410l133 -270 q248 -503 519 -508l-19 -55h-209q-119 0 -151 6q-76 14 -125 76q-113 143 -352 600l-82 -62q-45 -340 -56 -532l168 -33l-18 -55l-139 8q-35 2 -78 2h-185q-41 0 -77 -2z" />
<glyph unicode="&#xcb;" horiz-adv-x="1339" d="M-211 -12l18 53l162 35q650 938 676 1190l215 69q54 -433 174 -915q40 -161 88 -344l166 -35l-14 -53q-21 0 -78 4q-170 12 -233 12q-38 0 -113 -6q-85 -7 -111 -8q-45 -2 -90 -2l17 53l161 35q-10 131 -57 397q-37 207 -119 547q-347 -569 -479 -944l172 -35l-18 -53 l-56 4q-160 12 -223 12q-65 0 -258 -16z" />
<glyph unicode="&#xcc;" horiz-adv-x="1849" d="M-125 -10l19 55l163 33q179 461 349 1155l-177 33l17 55q155 -16 241 -16h54q24 0 45 2h43q22 0 43 2q59 -432 184 -916l324 533q96 159 188 385q111 -6 195 -6q47 0 140 8t140 8l-16 -55l-160 -33q-90 -533 -94 -1155l170 -33l-19 -55l-139 8q-35 2 -78 2h-186 q-43 0 -78 -2l-141 -8l18 55l158 33q61 354 94 1003q-44 -75 -201 -323l-65 -103l-12 -24q-37 -67 -140 -260q-81 -151 -106 -271l-170 -100q-13 115 -60 328q-25 110 -96 436l-41 192q-17 81 -26 138q-123 -398 -203 -1016l168 -33l-19 -55q-88 10 -262 10h-78 q-35 0 -65 -2z" />
<glyph unicode="&#xcd;" horiz-adv-x="1587" d="M-31 -10l17 55l161 33q123 596 160 1155l-168 33l19 55q18 -1 75 -6q127 -10 238 -10q38 2 229 10q34 2 78 6l-16 -55l-160 -33q-47 -223 -90 -504h582q41 283 53 504l-170 33l18 55q213 -16 305 -16q53 0 159 8t159 8l-16 -55l-160 -33q-131 -608 -164 -1155l168 -33 l-19 -55l-141 8q-35 2 -76 2h-184q-45 0 -80 -2l-139 -8l16 55l160 33q47 207 102 573h-585q-49 -352 -60 -573l168 -33l-18 -55l-139 8q-35 2 -78 2h-185q-41 0 -77 -2z" />
<glyph unicode="&#xce;" horiz-adv-x="1401" d="M66 453q0 343 190 583q111 140 271.5 219.5t336.5 79.5q463 0 463 -477q0 -262 -124 -477q-129 -225 -359 -334q-152 -72 -332 -72q-446 0 -446 478zM360 508q0 -438 273 -438q223 0 325 262q72 185 72 450q0 457 -272 457q-223 0 -326 -272q-72 -190 -72 -459z" />
<glyph unicode="&#xcf;" horiz-adv-x="1587" d="M-31 -10l17 55l161 33q123 596 160 1155l-168 33l19 55q18 -1 75 -6q127 -10 238 -10h143q24 0 85 -1l61 -1q14 0 209 4q92 2 207 2q21 0 62 -2t62 -2q53 0 159 8t159 8l-16 -55l-160 -33q-131 -608 -164 -1155l168 -33l-19 -55l-141 8q-35 2 -76 2h-184q-45 0 -80 -2 l-139 -8l16 55l160 33q23 99 53 266q15 83 33 193q26 157 57 458q6 62 21 222l-250 8l-295 -8q-9 -36 -33 -154q-8 -38 -12 -64q-54 -319 -96 -653q-13 -102 -21 -268l168 -33l-18 -55l-139 8q-35 2 -78 2h-185q-41 0 -77 -2z" />
<glyph unicode="&#xd0;" horiz-adv-x="1247" d="M-31 -10l17 55l161 33q123 596 160 1155l-168 33l19 59q174 -18 256 -18q8 0 86 4l235 12q39 2 84 2q340 0 340 -297q0 -216 -172 -338q-152 -108 -389 -108h-49q-29 0 -62 4q-32 -258 -47 -508l178 -33l-16 -55l-143 8q-36 2 -80 2h-191q-41 0 -77 -2zM504 668 q49 -13 102 -13q266 0 266 383q0 203 -190 203q-31 0 -88 -8q-41 -211 -90 -565z" />
<glyph unicode="&#xd1;" horiz-adv-x="1176" d="M96 455q0 372 235 623q240 257 609 257q266 0 266 -123q0 -71 -159 -172l-21 9q-22 190 -225 190q-216 0 -328 -262q-88 -206 -88 -477q0 -176 81 -281q90 -117 261 -117q176 0 348 111l-8 -94q-227 -144 -498 -144q-473 0 -473 480z" />
<glyph unicode="&#xd2;" horiz-adv-x="1266" d="M76 1024l51 238q13 61 66 61q16 0 79 -4q189 -12 482 -12q168 0 340 8l172 8q63 3 63 -45v-10q0 -5 -2 -8l-45 -213l-57 -23v45q0 92 -119 125q-48 13 -119 20l-135 13q-139 -699 -154 -1149l191 -33l-17 -55l-151 8q-38 2 -82 2h-197q-48 0 -86 -2l-151 -8l16 55l185 33 q124 588 163 1149q-169 -4 -229 -19q-116 -29 -182 -127l-23 -34z" />
<glyph unicode="&#xd3;" horiz-adv-x="1225" d="M14 1266l15 55q204 -16 295 -16q82 0 307 16l-19 -55l-155 -33l127 -428l121 -305l176 397q41 92 112 262l31 74l-158 33l17 55q188 -16 258 -16q80 0 235 16l-20 -55l-135 -33q-107 -129 -256 -412l-193 -368l-203 -406l43 -59l-24 -58l-240 41l-160 19l31 63l168 2 q96 27 160 158l-178 492l-215 528z" />
<glyph unicode="&#xd4;" horiz-adv-x="1632" d="M76 608q0 219 178 342q154 107 381 107q20 0 45 -4h27q12 0 26 -4l12 184l-167 33l18 55q18 -1 76 -6q166 -13 237 -10l230 10q33 1 78 6l-13 -55l-164 -33l-36 -180q34 0 102 6t102 6q348 0 348 -297q0 -219 -178 -342q-155 -107 -383 -107q-37 0 -98 9 q-18 -121 -18 -250l168 -33l-19 -55l-139 8q-35 2 -78 2h-184q-43 0 -78 -2l-141 -8l16 55l162 33l24 123q16 82 21 123q-129 -13 -207 -13q-348 0 -348 297zM360 598q0 -203 193 -203l90 8l25 142q11 65 20 123q20 137 37 303q-57 12 -98 12q-145 0 -213 -127 q-54 -100 -54 -258zM909 406q56 -13 95 -13q145 0 213 127q53 99 53 258q0 203 -189 203q-32 0 -90 -8q-45 -219 -82 -567z" />
<glyph unicode="&#xd5;" horiz-adv-x="1249" d="M-178 -10l16 55l164 33q279 293 498 565q-115 315 -242 590l-168 33l14 55q234 -12 314 -12q71 0 293 12l-17 -55l-137 -33q49 -189 135 -418q156 201 279 418l-127 33l14 55q158 -12 240 -12q127 0 182 6q37 4 76 6l-17 -55l-159 -33q-230 -221 -461 -496 q139 -364 280 -659l168 -33l-18 -55l-141 8q-35 2 -76 2h-184q-44 0 -80 -2l-142 -8l17 55l155 33q-86 282 -166 491q-237 -299 -331 -491l149 -33l-18 -55q-117 10 -283 10h-57q-24 0 -53 -2z" />
<glyph unicode="&#xd6;" horiz-adv-x="1587" d="M-33 -16l17 53l159 33q131 606 164 1155l-168 35l19 55q213 -12 309 -12q213 0 311 12l-16 -55l-160 -35q-62 -263 -125 -752q-12 -94 -39 -387l250 -8l295 8q20 88 45 217q39 204 96 658q13 104 21 264l-168 35l18 55q99 -12 310 -12q206 0 311 12l-17 -55l-161 -35 q-129 -617 -160 -1151l31 2q49 3 94 2q31 -1 43 -41l-60 -311l-55 -21v45q0 61 -21 119q-27 74 -73 86q-47 36 -211 43q-108 4 -127 4l-102 -2q-204 -4 -387 -4q-21 0 -62.5 2t-62.5 2q-53 0 -159 -8t-159 -8z" />
<glyph unicode="&#xd7;" horiz-adv-x="1378" d="M61 1266l17 55l78 -6q130 -10 233 -10q-5 0 90 4l142 6q20 2 79 6l-16 -55l-162 -33q-18 -58 -45 -234l-14 -198q0 -105 160 -105q143 0 258 58q26 180 49 479l-172 33l18 55q217 -16 305 -16q53 0 160 8t160 8l-17 -55l-161 -33q-131 -608 -164 -1155l168 -33l-19 -55 q-98 10 -307 10h-94q-43 0 -78 -2l-141 -8l16 55l162 33q61 284 100 573q-250 -106 -428 -106h-8q-250 0 -250 235q37 273 49 453z" />
<glyph unicode="&#xd8;" horiz-adv-x="2247" d="M-33 -16l17 53l159 33q131 606 164 1155l-168 35l19 55q213 -12 309 -12q213 0 311 12l-16 -55l-160 -35q-62 -263 -125 -752q-12 -94 -39 -387l209 -6l248 6q18 77 45 217q12 61 55 350q48 320 62 572l-168 35l16 55q111 -12 312 -12q206 0 311 12l-17 -55l-159 -35 q-90 -417 -144 -883q-15 -128 -24 -256l209 -6l249 6q27 117 46 217q61 325 94 658q14 140 20 264l-168 35l19 55q213 -12 309 -12q213 0 311 12l-16 -55l-160 -35q-119 -570 -162 -1155l168 -33l-18 -53q-19 0 -76 4q-172 12 -235 12q-10 0 -52 1h-73l-873 -1 q-61 0 -183 -2t-183 -2q-21 0 -62.5 2t-62.5 2q-53 0 -159 -8t-159 -8z" />
<glyph unicode="&#xd9;" horiz-adv-x="2226" d="M-33 -16l17 53l159 33q131 606 164 1155l-168 35l19 55q213 -12 309 -12q213 0 311 12l-16 -55l-160 -35q-62 -263 -125 -752q-12 -94 -39 -387l209 -6l248 6q18 77 45 217q12 61 55 350q48 320 62 572l-168 35l16 55q111 -12 312 -12q206 0 311 12l-17 -55l-159 -35 q-90 -417 -144 -883q-15 -128 -24 -256l209 -6l249 6q27 117 46 217q61 325 94 658q14 140 20 264l-168 35l19 55q213 -12 309 -12q213 0 311 12l-16 -55l-160 -35q-119 -570 -162 -1155l97 6q32 2 51 2h18q51 0 66 -41l-58 -311l-57 -21v45q0 61 -21 119q-27 74 -73 86 q-80 21 -129 31q-79 16 -340 16l-713 -2q-55 0 -182.5 -2t-183.5 -2q-21 0 -62.5 2t-62.5 2q-53 0 -159 -8t-159 -8z" />
<glyph unicode="&#xda;" horiz-adv-x="1364" d="M12 1024l51 238q13 61 64 61q20 0 82 -4q217 -14 328 -14q37 2 229 10q34 2 78 6l-17 -55l-159 -33l-54 -242q-1 -3 -34 -219h8q6 -2 10 -2l279 -29q180 -19 256 -69q108 -70 108 -228q0 -243 -187 -359q-153 -95 -411 -95q-33 0 -172 6q-92 4 -201 4h-45l-190 -10l16 55 l162 33q61 295 102 590q29 212 43 403l11 154h-25q-90 0 -146 -35q-49 -30 -104 -109l-24 -34zM506 98q98 -30 174 -30q145 0 217 114q61 95 61 248q0 141 -67 203q-65 59 -207 59q-57 0 -115 -6q-41 -266 -63 -588z" />
<glyph unicode="&#xdb;" horiz-adv-x="1888" d="M-31 -10l17 55l161 33q123 596 160 1155l-168 33l19 55q18 -1 75 -6q127 -10 238 -10q38 2 229 10q34 2 78 6l-16 -55l-160 -33l-53 -242q-9 -55 -35 -219h8q6 -2 10 -2q83 -8 140 -14l139 -15q180 -19 256 -69q109 -71 109 -228q0 -242 -187 -358q-154 -96 -411 -96 q-33 0 -172 6q-93 4 -201 4h-45zM440 98q99 -30 174 -30q144 0 217 114q62 96 62 248q0 139 -68 202q-66 60 -207 60q-57 0 -114 -6q-41 -266 -64 -588zM1102 -10l16 55l160 33q129 618 164 1155l-168 33l16 55l78 -6q130 -10 234 -10q52 0 156.5 8t156.5 8l-17 -55 l-161 -33q-131 -617 -164 -1155l168 -33l-17 -55l-139 8q-35 2 -78 2h-186q-43 0 -78 -2z" />
<glyph unicode="&#xdc;" horiz-adv-x="1296" d="M-31 -10l17 55l161 33q123 596 160 1155l-168 33l19 55q18 -1 75 -6q127 -10 238 -10q38 2 229 10q34 2 78 6l-16 -55l-160 -33l-53 -242q-9 -55 -35 -219h8q6 -2 10 -2q83 -8 140 -14l139 -15q180 -19 256 -69q109 -71 109 -228q0 -242 -187 -358q-154 -96 -411 -96 q-33 0 -172 6q-93 4 -201 4h-45zM440 98q99 -30 174 -30q144 0 217 114q62 96 62 248q0 139 -68 202q-66 60 -207 60q-57 0 -114 -6q-41 -266 -64 -588z" />
<glyph unicode="&#xdd;" horiz-adv-x="1176" d="M-57 119l18 94q141 -111 318 -111q170 0 294 119q111 106 162 279q20 69 29 114q-74 0 -250 -16l-88 -8l-55 -127l-62 -17q72 256 82 420l51 31l7 -172q202 -27 329 -33q15 96 15 160q0 94 -25 180q-60 207 -238 207q-202 0 -280 -190l-23 -9q-110 90 -110 152 q0 82 119 119q77 24 184 24q357 0 528 -252q107 -158 107 -356q0 -124 -43 -272q-140 -480 -613 -480q-270 0 -456 144z" />
<glyph unicode="&#xde;" horiz-adv-x="2093" d="M-31 -10l17 55l161 33q123 596 160 1155l-168 33l19 55q18 -1 75 -6q127 -10 238 -10q38 2 229 10q34 2 78 6l-16 -55l-160 -33q-47 -223 -90 -504h283q6 23 12 41q111 337 414 485q164 80 335 80q463 0 463 -477q0 -262 -124 -477q-129 -225 -359 -334 q-152 -72 -332 -72q-446 0 -446 478q0 100 18 198h-276q-49 -352 -60 -573l168 -33l-18 -55l-139 8q-35 2 -78 2h-185q-41 0 -77 -2zM1053 508q0 -438 272 -438q224 0 326 262q71 183 71 450q0 457 -272 457q-224 0 -326 -272q-71 -189 -71 -459z" />
<glyph unicode="&#xdf;" horiz-adv-x="1356" d="M-156 -20v53h9q172 0 350 196q66 72 159 205l150 213q-258 92 -258 295q0 44 12 90q74 281 430 281q13 0 123 -6q74 -4 172 -4q101 0 387 18l2 -55l-180 -33q-108 -502 -151 -1155l151 -33l-14 -55l-139 8q-35 2 -76 2h-187q-43 0 -79 -2l-144 -8l17 55l176 33 q47 201 90 508q-70 0 -107 6q-181 -250 -250 -334q-191 -234 -290 -274q-42 -17 -95 -17h-20zM520 883q0 -203 234 -203h22l80 10q38 265 49 422l8 111q-5 1 -51 4q-27 2 -51 2q-119 0 -180 -49q-48 -39 -81 -137q-30 -88 -30 -160z" />
<glyph unicode="&#xe0;" horiz-adv-x="1024" d="M34 123q0 520 377 737q106 61 207 80q74 14 215 14h53q29 0 66 4l-43 -172q-88 -352 -88 -538q0 -43 24 -43q23 0 95 78l45 -37q-203 -264 -346 -264q-84 0 -84 116q0 95 38 252l7 29q-173 -258 -332 -356q-66 -41 -131 -41q-103 0 -103 141zM286 246q0 -72 39 -72 q107 0 248 283q63 127 100 344l-71 8q-53 6 -76 6q-82 0 -125 -70q-58 -94 -105 -393q-10 -64 -10 -106z" />
<glyph unicode="&#xe1;" horiz-adv-x="995" d="M76 258q0 127 37 242q20 215 30 291q56 432 209 591q101 105 403 167q181 37 178 82l41 -38q1 -16 1 -31q0 -194 -136 -262q-78 -39 -240 -62q-157 -22 -197 -45q-136 -78 -161 -236q-10 -62 1 -220q87 114 243 183q107 47 205 47q250 0 250 -279q0 -274 -176 -485 q-184 -221 -451 -221q-237 0 -237 276zM342 299q0 -209 121 -209q122 0 174 236q31 140 31 325q0 205 -119 205q-121 0 -174 -233q-33 -145 -33 -324z" />
<glyph unicode="&#xe2;" d="M37 18q38 81 100 551q61 457 127 623q69 172 225 307q171 148 334 148q123 0 123 -99q0 -127 -102 -321q-67 -128 -242 -391q164 139 272 139q113 0 113 -184q0 -319 -213 -545q-240 -254 -545 -254q-98 0 -192 26zM315 143q68 -12 121 -12q279 0 279 569q0 93 -43 93 q-55 0 -176 -154q-150 -191 -181 -496zM371 604q338 444 338 731v4q0 45 -37 82t-82 37q-70 0 -101 -135q-1 -3 -77 -471l-23 -141q-5 -31 -18 -107z" />
<glyph unicode="&#xe3;" horiz-adv-x="768" d="M6 174v27q0 157 174 260q51 30 125 47q89 20 145 83q60 66 60 154q0 86 -61 86q-113 0 -140 -247q-33 -11 -63 -11q-96 0 -96 68v4q0 38 55 105q72 87 179 148q117 67 220 67q146 0 146 -134q0 -182 -213 -294q-111 -46 -135 -57q-104 -48 -119 -72q-25 -40 -25 -86v-15 q0 -58 29 -97q32 -44 88 -44q110 0 270 194l49 -45q-103 -132 -225 -223q-157 -117 -287 -117q-176 0 -176 199z" />
<glyph unicode="&#xe4;" horiz-adv-x="991" d="M-152 -625q0 64 54 115q149 -137 293 -137q231 0 376 870l15 90q1 8 8 68q-174 -261 -332 -358q-66 -41 -131 -41q-102 0 -102 141q0 520 377 737q106 61 206 80q73 14 215 14h54q28 0 65 4q-20 -65 -63 -311q-10 -52 -35 -203l-60 -381q-5 -33 -22 -129 q-78 -415 -350 -581q-175 -107 -359 -107q-209 0 -209 129zM281 246q0 -72 38 -72q101 0 254 301q58 115 95 326q-133 14 -148 14q-82 0 -125 -70q-59 -97 -104 -393q-10 -66 -10 -106z" />
<glyph unicode="&#xe5;" horiz-adv-x="819" d="M45 201q0 308 193 540q73 88 182 152q122 72 223 72q145 0 145 -134q0 -130 -159 -229q-132 -82 -295 -106q-23 -97 -23 -193q0 -137 103 -137q110 0 270 194l49 -45q-266 -340 -512 -340q-176 0 -176 226zM344 561q89 0 145 47q60 50 60 137q0 86 -62 86t-96 -88 q-16 -42 -26 -86z" />
<glyph unicode="&#xe6;" horiz-adv-x="1449" d="M-174 182l55 35q49 -78 76 -78q66 0 217 195q112 145 260 360q-61 74 -149 74q-97 0 -168 -59q-41 65 -41 114q0 56 34 94.5t89 38.5q116 0 250 -165q98 -121 163 -269q16 109 45 295q49 311 136 465q80 142 223 248q157 117 299 117q117 0 117 -99q0 -53 -50 -110 q-118 82 -217 82q-161 0 -270 -693l-27 -172q-9 -55 -22 -133q204 282 383 389q75 45 141 45q82 0 82 -84q0 -69 -80 -163q-59 59 -141 59q-84 0 -164 -74q190 -555 283 -555q26 0 94 78l45 -35q-160 -207 -262 -207q-115 0 -195 179q-23 52 -121 362q-84 -88 -131 -459 q-80 -26 -211 -69q-26 -9 -55 -17q33 158 70 361q10 107 -43 184q-138 -239 -209 -331q-162 -210 -297 -210q-107 0 -209 207z" />
<glyph unicode="&#xe7;" horiz-adv-x="844" d="M-248 -625q0 64 53 115q150 -137 293 -137q135 0 234 250q36 91 57 153q29 87 41 158q8 48 19 135q4 31 4 39q0 80 -58 80q-64 0 -147 -72q-28 -24 -45 -24t-17 22q0 50 41 74q92 53 203 217q125 184 125 322q0 110 -111 110q-76 0 -110 -26q-64 -49 -90 -205 q-8 -56 -33 -234q-71 17 -121 66q-55 54 -55 123q0 67 86 176q51 65 188 143q172 98 357 98q21 0 65 -4q66 -6 66 -94q0 -106 -97 -270q-104 -175 -243 -283l61 15q24 6 49 6q140 0 140 -172v-4q0 -89 -60 -302q-131 -466 -504 -575q-99 -29 -182 -29q-209 0 -209 129z" />
<glyph unicode="&#xe8;" horiz-adv-x="1153" d="M41 698q205 263 344 263q86 0 86 -109q0 -105 -47 -309.5t-47 -309.5q0 -40 29 -40q111 0 284 326q49 92 69 188q7 33 25 180q101 24 258 88q-51 -229 -104 -561q-12 -75 -12 -168q0 -41 26 -41q27 0 95 76l43 -35q-201 -258 -349 -258q-77 0 -77 104q0 98 28 227 q5 24 19 103q-192 -271 -383 -389q-73 -45 -144 -45q-73 0 -73 84q0 106 47 312t47 312q0 41 -29 41q-24 0 -92 -78z" />
<glyph unicode="&#xe9;" horiz-adv-x="1153" d="M41 698q205 263 344 263q86 0 86 -109q0 -105 -47 -309.5t-47 -309.5q0 -40 29 -40q111 0 284 326q49 92 69 188q7 33 25 180q101 24 258 88q-51 -229 -104 -561q-12 -75 -12 -168q0 -41 26 -41q27 0 95 76l43 -35q-201 -258 -349 -258q-77 0 -77 104q0 98 28 227 q5 24 19 103q-192 -271 -383 -389q-73 -45 -144 -45q-73 0 -73 84q0 106 47 312t47 312q0 41 -29 41q-24 0 -92 -78zM360 1253q0 187 201 187q27 -145 176 -183q39 -10 64 -10q155 0 293 113l4 -64q-228 -174 -492 -174q-86 0 -153 25q-93 35 -93 106z" />
<glyph unicode="&#xea;" horiz-adv-x="1009" d="M45 -29q13 62 70 391l47 273q45 264 108 498q27 101 54 149q81 143 220 248q156 117 304 117q117 0 117 -99q0 -53 -52 -110q-118 82 -217 82q-159 0 -270 -693l-49 -305q197 274 383 389q73 45 141 45q82 0 82 -84q0 -71 -78 -163q-59 59 -143 59q-82 0 -162 -74 q191 -555 283 -555q26 0 94 78l43 -35q-160 -207 -262 -207q-115 0 -195 179q-22 49 -119 362q-86 -90 -133 -459q-80 -26 -211 -69q-26 -9 -55 -17z" />
<glyph unicode="&#xeb;" horiz-adv-x="937" d="M-39 109q0 156 283 518q219 280 424 350q35 12 59 12h16q9 0 13 -18q0 -3 -6 -33q-39 -206 -39 -414q0 -282 67 -282q37 0 109 82l45 -37q-214 -291 -336 -291q-83 0 -113 113q-22 83 -22 262q0 250 28 428q-111 -122 -206 -271q-123 -193 -123 -307q0 -49 39 -49 q26 0 77 47l41 -39q-157 -184 -256 -184q-100 0 -100 113z" />
<glyph unicode="&#xec;" horiz-adv-x="1493" d="M0 98q0 216 254 582q190 274 315 274q164 0 181 -479q77 123 256 295q213 205 313 205q33 0 33 -27q-4 -11 -21 -84q-69 -287 -69 -504q0 -131 51 -131q37 0 108 82l72 -37q-260 -284 -367 -284q-110 0 -110 235q0 238 74 535q-297 -232 -390 -633q-100 -66 -155 -129 l-41 22q22 109 22 271q0 467 -96 467q-53 0 -123 -129q-125 -229 -125 -389q0 -66 43 -66q25 0 64 39l35 -33q-127 -190 -236 -190q-88 0 -88 108z" />
<glyph unicode="&#xed;" horiz-adv-x="1153" d="M18 698q238 265 371 265q78 0 78 -99q0 -131 -57 -389q164 12 276 117q29 27 35 51q35 141 45 242q93 27 152 49l73 27q10 3 41 14l-74 -363q-40 -196 -40 -366q0 -49 28 -49q37 0 117 86l39 -37q-80 -91 -168 -162q-126 -102 -203 -102q-78 0 -78 98q0 50 15 141l41 250 q-144 -29 -236 -90q-48 -32 -74 -82q-34 -129 -45 -242q-45 -11 -213 -67q-26 -9 -53 -19l65 300q33 153 47 303q5 57 5 124q0 52 -29 52q-37 0 -119 -91z" />
<glyph unicode="&#xee;" horiz-adv-x="971" d="M37 258q0 221 105 395q109 182 307 267q109 47 202 47q250 0 250 -279q0 -274 -176 -485q-184 -221 -451 -221q-237 0 -237 276zM303 299q0 -209 121 -209q122 0 174 236q31 140 31 325q0 205 -119 205q-121 0 -174 -233q-33 -145 -33 -324z" />
<glyph unicode="&#xef;" horiz-adv-x="1153" d="M18 698q238 265 371 265q78 0 78 -99q0 -104 -49 -342q185 269 385 393q78 48 143 48q70 0 70 -91q0 -29 -15 -122l-61 -377q-14 -87 -14 -127q0 -41 24 -41q27 0 94 76l46 -37q-209 -262 -349 -262q-82 0 -82 106q0 105 43 310.5t43 310.5q0 41 -28 41q-50 0 -133 -105 q-66 -84 -109 -158q-94 -163 -121 -430q-45 -11 -213 -67q-26 -9 -53 -19l65 300q33 153 47 303q5 57 5 124q0 52 -29 52q-37 0 -119 -91z" />
<glyph unicode="&#xf0;" horiz-adv-x="1068" d="M-683 -625q0 64 53 117q150 -139 297 -139q140 0 219 135q88 151 164 649q25 161 72 416l45 242q26 141 102 350q23 64 35 88q128 261 369 369q89 40 168 40q127 0 127 -98q0 -53 -54 -110q-118 82 -217 82q-109 0 -210 -318q-57 -180 -97 -405q-6 -31 -57 -267 q116 156 235 267q179 168 297 168q115 0 115 -203q0 -293 -201 -531q-209 -247 -498 -247h-26q-82 -502 -451 -676q-123 -58 -278 -58q-209 0 -209 129zM269 92q74 -20 117 -20q154 0 227 176q56 135 84 340q8 59 8 104q0 70 -49 70q-106 0 -264 -293q-90 -167 -123 -377z " />
<glyph unicode="&#xf1;" horiz-adv-x="811" d="M45 209q0 267 166 502q182 258 444 258q156 0 156 -107q0 -76 -172 -157q-90 135 -143 135q-93 0 -140 -222q-32 -151 -32 -307q0 -139 100 -139q106 0 270 193l51 -46q-109 -139 -227 -225q-156 -114 -293 -114q-180 0 -180 229z" />
<glyph unicode="&#xf2;" horiz-adv-x="1669" d="M20 694q228 258 365 258q78 0 78 -92q0 -104 -49 -342q203 283 374 389q72 45 142 45q69 0 69 -84q0 -77 -55 -350q135 186 232 279q161 155 282 155q74 0 74 -84q0 -38 -14 -123l-62 -376q-14 -85 -14 -127q0 -41 24 -41q25 0 93 75l43 -34q-209 -267 -340 -267 q-82 0 -82 115q0 104 43 307.5t43 307.5q0 40 -29 40q-98 0 -246 -274q-85 -158 -108 -401q-123 -37 -260 -99q80 364 104 568q10 84 10 166q0 40 -30 40q-50 0 -132 -104q-127 -161 -180 -344q-29 -102 -45 -240q-12 -2 -129 -41l-78 -26q-21 -7 -53 -19q81 364 106 570 q9 74 9 153q0 51 -29 51q-33 0 -115 -90zM305 1214q0 79 82 129q70 43 154 43q48 -91 209 -141q132 -41 294 -41q256 0 490 115l6 -64q-171 -78 -403 -125q-226 -47 -420 -47q-143 0 -264 27q-148 33 -148 104z" />
<glyph unicode="&#xf3;" horiz-adv-x="1094" d="M-61 -625q0 64 53 117q147 -139 295 -139q242 0 383 840l22 131q4 26 15 98q-192 -271 -383 -389q-73 -45 -144 -45q-74 0 -74 84q0 106 47.5 312t47.5 312q0 41 -29 41q-27 0 -94 -78l-41 39q205 263 344 263q86 0 86 -109q0 -44 -14 -123l-66 -371q-16 -90 -16 -125 q0 -40 30 -40q112 0 272 308q77 148 107 386q22 5 117 39l139 49q-28 -137 -65 -369l-39 -246q-48 -305 -80 -460q-17 -85 -37 -148q-71 -226 -252 -365q-185 -141 -420 -141q-204 0 -204 129z" />
<glyph unicode="&#xf4;" horiz-adv-x="1451" d="M-152 -625q0 66 51 117q145 -139 297 -139q179 0 266 241q57 159 95 403q31 198 61 396q-86 -128 -211 -250q-165 -161 -268 -161t-103 141q0 520 377 737q129 74 291 90q76 353 287 535q182 157 348 157q127 0 127 -98q0 -57 -53 -110q-119 82 -218 82q-108 0 -209 -319 q-54 -170 -98 -404q148 206 336 206q152 0 152 -303q0 -134 -56 -317q-80 -261 -235 -318q-43 -16 -88 -16q-94 0 -189 59l-34 -165q-62 -301 -235 -485q-196 -208 -486 -208q-205 0 -205 129zM288 246q0 -72 39 -72q102 0 246 272q60 113 102 355q-3 0 -22.5 2t-36.5 4 l-15 2q-45 6 -73 6q-82 0 -125 -70q-58 -94 -105 -393q-10 -64 -10 -106zM843 344q111 -227 189 -227q114 0 114 387q0 99 -16 202q-25 162 -78 162q-12 0 -20 -8q-64 -48 -125 -244q-44 -141 -64 -272z" />
<glyph unicode="&#xf5;" horiz-adv-x="905" d="M-84 109q0 7 1 23t1 24q55 -9 76 -9q172 0 336 285q-70 287 -121 287q-37 0 -94 -84l-43 37q61 96 129 174q103 119 168 119q64 0 108 -166q1 -4 51 -215q71 123 162 264q76 117 178 117q49 0 77 -47q24 -39 24 -91q0 -30 -6 -32q-9 -4 -41 -4q-211 0 -373 -287l4 -8 q74 -279 125 -279q39 0 102 90l43 -39q-174 -268 -303 -268q-78 0 -117 115q-18 82 -55 243l-69 -135q-127 -248 -261 -248q-104 0 -102 134z" />
<glyph unicode="&#xf6;" horiz-adv-x="1153" d="M41 698q205 263 344 263q86 0 86 -109q0 -105 -47 -309.5t-47 -309.5q0 -40 29 -40q60 0 146 107q68 84 112 175q93 192 120 412q101 24 258 88q-51 -229 -104 -561q-12 -75 -12 -168q0 -41 26 -41q29 0 154 121q61 -78 61 -217q0 -331 -112 -511q-92 -148 -241 -148 q-84 0 -135 41q-22 18 -22 47q0 13 6 32q17 53 47 95q69 -80 186 -80q69 0 125 55q62 61 62 254q0 89 -10 138q-25 121 -47 154l-84 -96q-32 -37 -92 -68q-64 -34 -109 -34q-77 0 -77 104q0 98 28 227q5 24 19 103q-192 -271 -383 -389q-73 -45 -144 -45q-73 0 -73 84 q0 106 47 312t47 312q0 41 -29 41q-24 0 -92 -78z" />
<glyph unicode="&#xf7;" horiz-adv-x="1153" d="M41 698q205 263 344 263q86 0 86 -109q0 -22 2 -25h2q-3 -7 -18 -77q-35 -162 -35 -265q0 -41 29 -41q6 0 14 2q95 23 221 222q63 99 98 219q101 24 258 88q-51 -229 -104 -561q-12 -75 -12 -168q0 -41 26 -41q27 0 95 76l43 -35q-201 -258 -349 -258q-77 0 -77 104 q0 42 8 103q22 168 73 440q-98 -133 -278 -277q-150 -120 -238 -120q-71 0 -71 86q0 103 35 262q16 72 16 82q-4 4 -4 28q0 41 -29 41q-24 0 -92 -78z" />
<glyph unicode="&#xf8;" horiz-adv-x="1634" d="M41 698q205 263 344 263q86 0 86 -109q0 -105 -47 -309.5t-47 -309.5q0 -39 29 -40q101 -3 270 278q54 88 79 211q9 44 29 205q101 24 258 88q-51 -229 -104 -561q-12 -75 -12 -168q0 -47 24 -47q48 0 144 122q67 85 109 158q55 96 80 224l26 184q100 24 258 88 q-52 -233 -105 -561q-12 -74 -12 -168q0 -41 27 -41q26 0 94 76l43 -35q-201 -258 -348 -258q-78 0 -78 104q0 97 29 227q5 24 18 103q-157 -218 -334 -350q-118 -88 -168 -88q-17 0 -24 4q-45 26 -45 104q0 98 28 227q5 24 19 103q-192 -271 -383 -389q-73 -45 -144 -45 q-73 0 -73 84q0 106 47 312t47 312q0 41 -29 41q-24 0 -92 -78zM78 -299q164 77 403 125q229 47 420 47q142 0 264 -27q148 -33 148 -104q0 -78 -82 -128q-72 -44 -154 -44q-48 91 -209 141q-132 41 -295 41q-245 0 -489 -114z" />
<glyph unicode="&#xf9;" horiz-adv-x="1690" d="M41 698q205 263 344 263q86 0 86 -109q0 -105 -47 -309.5t-47 -309.5q0 -25 29 -40q23 -12 119 80q107 102 166 216q46 91 67 203q5 24 26 195q101 24 258 88q-51 -229 -104 -561q-12 -75 -12 -168q0 -34 32 -45q19 -7 102 76q99 96 163 215q51 96 69 218q8 88 17 177 q100 24 258 88q-52 -233 -105 -561q-12 -74 -12 -168q0 -41 27 -41q26 0 92 74q61 -82 61 -218v-8q0 -278 -102 -435q-109 -168 -257 -168q-158 0 -158 88q0 16 7 30q11 47 47 97q74 -85 206 -85q82 0 114.5 44.5t43.5 173.5q10 113 -1 181q-21 129 -41 160 q-89 -89 -176 -135q-30 -16 -47 -16q-78 0 -78 104q0 96 29 227q5 24 18 103q-157 -218 -334 -350q-118 -88 -168 -88q-69 0 -69 108q0 98 28 227q5 24 19 103q-192 -271 -383 -389q-73 -45 -144 -45q-73 0 -73 84q0 106 47 312t47 312q0 41 -29 41q-24 0 -92 -78z" />
<glyph unicode="&#xfa;" horiz-adv-x="1182" d="M-20 438q0 72 51 144q95 105 293 309q91 70 155 70q86 0 86 -109q0 -223 -30 -365q286 336 469 336q126 0 126 -159q0 -134 -94 -283q-137 -217 -381 -328q-134 -61 -288 -61q-59 0 -156 18q-16 3 -39 8q20 38 33 97l53 250q41 193 41 294v37q0 41 -29 41q-37 0 -82 -75 q-61 -101 -77 -283q-8 -90 -9 -111l-75 47q-47 58 -47 123zM453 143l120 -12q20 -2 27 -2q122 0 182 121q76 154 76 297q0 96 -47 96q-84 0 -219 -207q-129 -198 -139 -293z" />
<glyph unicode="&#xfb;" horiz-adv-x="1590" d="M41 698q205 263 344 263q86 0 86 -109q0 -223 -31 -365q286 336 469 336q127 0 127 -159q0 -134 -94 -283q-137 -217 -381 -328q-134 -61 -289 -61q-58 0 -155 18q-16 3 -39 8q5 12 16 41q15 43 47 195l23 111q41 198 41 294v37q0 41 -29 41q-24 0 -92 -78zM358 143 l121 -12q20 -2 27 -2q122 0 182 121q76 154 76 297q0 96 -47 96q-84 0 -219 -207q-129 -198 -140 -293zM1059 672q227 293 366 293q70 0 70 -93q0 -34 -14 -116l-62 -361q-14 -82 -14 -119q0 -43 29 -43q32 0 98 78l39 -39q-232 -292 -367 -292q-71 0 -71 108q0 99 46 292 t46 292q0 37 -29 37q-31 0 -98 -78z" />
<glyph unicode="&#xfc;" horiz-adv-x="1074" d="M41 698q205 263 344 263q86 0 86 -109q0 -223 -31 -365q286 336 469 336q127 0 127 -159q0 -134 -94 -283q-137 -217 -381 -328q-134 -61 -289 -61q-58 0 -155 18q-16 3 -39 8q5 12 16 41q15 43 47 195l23 111q41 198 41 294v37q0 41 -29 41q-24 0 -92 -78zM358 143 l121 -12q20 -2 27 -2q122 0 182 121q76 154 76 297q0 96 -47 96q-84 0 -219 -207q-129 -198 -140 -293z" />
<glyph unicode="&#xfd;" horiz-adv-x="811" d="M-20 98q0 74 176 158q86 -135 139 -135q59 0 110 131q38 97 50 184h-236l31 84h217q6 62 6 127q0 139 -100 139q-107 0 -273 -190l-49 47q106 133 228 222q156 114 290 114h4q177 0 177 -223v-6q0 -137 -53 -285q-54 -151 -142 -252q-76 -86 -189 -150q-125 -71 -227 -71 q-60 0 -104 23q-55 28 -55 83z" />
<glyph unicode="&#xfe;" horiz-adv-x="1485" d="M18 698q238 265 371 265q78 0 78 -99q0 -131 -57 -389q102 8 208 66q0 3 2.5 8t2.5 8q104 255 354 363q109 47 203 47q250 0 250 -279q0 -273 -177 -485q-185 -221 -450 -221q-238 0 -238 276q0 72 21 180q-133 -45 -187 -139q-34 -129 -45 -242q-45 -11 -213 -67 q-26 -9 -53 -19l65 300q33 153 47 303q5 57 5 124q0 52 -29 52q-37 0 -119 -91zM831 299q0 -209 121 -209q122 0 174 236q31 140 31 325q0 205 -119 205q-120 0 -174 -233q-33 -143 -33 -324z" />
<glyph unicode="&#xff;" horiz-adv-x="1024" d="M18 80q0 93 129 211q55 50 207 155q-16 0 -49 -4t-49 -4q-83 0 -129 45q-35 34 -35 109q0 172 207 282q169 90 426 105q34 2 76 2h35l104 -6q-61 -292 -74 -363q-41 -231 -41 -366q0 -49 29 -49q37 0 117 86l39 -37q-80 -91 -168 -162q-126 -102 -203 -102q-78 0 -78 98 q0 48 14 141l48 320q-48 -24 -144 -73q-77 -41 -122 -104q-52 -73 -52 -157v-12q0 -121 82 -146q-133 -57 -233 -57h-25q-111 0 -111 88zM322 639q-4 -80 77 -111q21 -8 45 -8q29 0 54 15q130 77 145 149q14 67 44 215q-13 6 -89 4q-78 -1 -115 -10q-103 -24 -136 -96 q-19 -42 -25 -158z" />
<glyph unicode="&#x152;" horiz-adv-x="1995" d="M66 463q0 332 192 579q217 279 553 279q164 -6 403 -16l117 -5q128 -5 457 17q58 4 80 4q57 0 57 -51q0 -13 -2 -17l-51 -221l-51 -12l-4 61q-5 71 -193 107q-2 0 -244 31q-55 -236 -90 -504q176 6 367 26l55 127l62 17q-70 -228 -82 -422l-52 -29l-10 172 q-139 23 -352 37q-49 -354 -57 -549q16 0 65 2q469 19 541 160l20 39l58 20l-66 -239q-16 -59 -48 -80t-95 -21q-11 0 -230 13l-135 8q-68 4 -98 4q-41 0 -137 -4l-504 -21q-526 -22 -526 488zM360 516q0 -459 353 -459q111 0 165 32q64 39 87 140q28 122 71 449 q45 342 45 399q0 168 -241 168q-365 0 -455 -473q-25 -132 -25 -256z" />
<glyph unicode="&#x153;" horiz-adv-x="1360" d="M37 258q0 272 170 483q182 226 444 226q166 0 223 -131q156 131 306 131q143 0 143 -136q0 -131 -162 -229q-135 -82 -297 -102q-20 -88 -20 -193q0 -139 100 -139q117 0 279 197l51 -50q-256 -333 -508 -333q-143 0 -162 120q-133 -120 -330 -120q-237 0 -237 276z M303 299q0 -209 121 -209q122 0 174 236q31 140 31 325q0 205 -119 205q-121 0 -174 -233q-33 -145 -33 -324zM874 565h7q90 0 147 47q62 50 62 138q0 94 -66 94q-67 0 -109 -113q-15 -40 -41 -166z" />
<glyph unicode="&#x178;" horiz-adv-x="1225" d="M14 1266l15 55q204 -16 295 -16q82 0 307 16l-19 -55l-155 -33q96 -268 235 -557q217 315 332 557l-158 33l17 55q188 -16 258 -16q80 0 235 16l-20 -55l-135 -33q-269 -322 -480 -631q-49 -334 -57 -524l188 -33l-16 -55q-111 10 -332 10h-98q-45 0 -84 -2l-154 -8 l17 55l184 33q55 254 86 500l-88 188q-115 246 -233 467zM397 1640q0 55 39 92t94 37q57 0 95.5 -36t38.5 -93q0 -60 -37 -96.5t-97 -36.5q-55 0 -94 39t-39 94zM780 1640q0 55 39 92t94 37q58 0 94.5 -35.5t36.5 -93.5q0 -133 -131 -133q-55 0 -94 39t-39 94z" />
<glyph unicode="&#x2000;" horiz-adv-x="884" />
<glyph unicode="&#x2001;" horiz-adv-x="1769" />
<glyph unicode="&#x2002;" horiz-adv-x="884" />
<glyph unicode="&#x2003;" horiz-adv-x="1769" />
<glyph unicode="&#x2004;" horiz-adv-x="589" />
<glyph unicode="&#x2005;" horiz-adv-x="442" />
<glyph unicode="&#x2006;" horiz-adv-x="294" />
<glyph unicode="&#x2007;" horiz-adv-x="294" />
<glyph unicode="&#x2008;" horiz-adv-x="221" />
<glyph unicode="&#x2009;" horiz-adv-x="353" />
<glyph unicode="&#x200a;" horiz-adv-x="98" />
<glyph unicode="&#x2010;" horiz-adv-x="729" d="M37 381q145 233 258 233q29 0 88 -8t88 -8q88 0 156 61l37 -24q-152 -238 -263 -238q-19 0 -88 11q-50 8 -88 8q-92 0 -153 -62z" />
<glyph unicode="&#x2011;" horiz-adv-x="729" d="M37 381q145 233 258 233q29 0 88 -8t88 -8q88 0 156 61l37 -24q-152 -238 -263 -238q-19 0 -88 11q-50 8 -88 8q-92 0 -153 -62z" />
<glyph unicode="&#x2012;" horiz-adv-x="729" d="M37 381q145 233 258 233q29 0 88 -8t88 -8q88 0 156 61l37 -24q-152 -238 -263 -238q-19 0 -88 11q-50 8 -88 8q-92 0 -153 -62z" />
<glyph unicode="&#x2013;" horiz-adv-x="729" d="M37 381q145 233 258 233q29 0 88 -8t88 -8q88 0 156 61l37 -24q-152 -238 -263 -238q-19 0 -88 11q-50 8 -88 8q-92 0 -153 -62z" />
<glyph unicode="&#x2014;" horiz-adv-x="1116" d="M37 381q145 233 258 233q82 0 247 -9t247 -9q88 0 156 61l37 -24q-152 -238 -263 -238q-82 0 -247 10.5t-247 10.5q-92 0 -153 -62z" />
<glyph unicode="&#x2026;" horiz-adv-x="1537" d="M119 90q0 66 40 117q43 55 107 55q45 0 76 -30.5t31 -75.5q0 -73 -37 -124q-41 -57 -111 -57q-106 0 -106 115zM597 90q0 66 40 117q43 55 107 55q45 0 76 -30.5t31 -75.5q0 -73 -37 -124q-41 -57 -111 -57q-106 0 -106 115zM1089 90q0 66 40 117q43 55 107 55 q45 0 76 -30.5t31 -75.5q0 -73 -37 -124q-41 -57 -111 -57q-106 0 -106 115z" />
<glyph unicode="&#x202f;" horiz-adv-x="353" />
<glyph unicode="&#x205f;" horiz-adv-x="442" />
<glyph unicode="&#x25fc;" horiz-adv-x="965" d="M0 0v965h965v-965h-965z" />
</font>
</defs>
</svg>
